<svg width="26" height="27" fill="none" xmlns="http://www.w3.org/2000/svg"><g filter="url(#filter0_d_133_348)"><mask id="path-1-outside-1_133_348" maskUnits="userSpaceOnUse" x="2" y="1" width="22" height="23" fill="#000"><path fill="#fff" d="M2 1h22v23H2z"/><path fill-rule="evenodd" clip-rule="evenodd" d="M10.546 23s-3.33-2.548-4.5-4.5c-1.172-1.952-3.39-4.438-3-6 .39-1.562 1.828-2.054 3-.883 1.17 1.172 1.96 3.71 2.74 3.319.781-.39.195-4.1-.585-6.246C7.42 6.543 6.606 2 8.2 2s1.594 1.5 2.345 3.75c.75 2.25.164 5.25.75 5.25.585 0 .809-.524.809-1.5 0-.265.051-.49.157-.675.283-.498.95-.72 2.034-.72 1.486 0 .75 2.895 1.5 2.895s.75.062.75-1.5.695-1.396 2.195-1.396S19.515 11 20.296 11c.78 0 0-1.5.75-1.5s1.5.237 1.5 3.75.42 3.689-.75 5.25c-1.172 1.561-2.25 3-2.25 3s0 1.5-.805 1.5-1.22-1.5-2.195-1.5c-.976 0-1.5 1.5-1.5 1.5h-4.5zm9-3v-6h-1.5v6h1.5zm-4.5-1.5c0 .406.347 1.5.75 1.5.414 0 .75-1.087.75-1.5v-3c0-.406-.348-1.5-.75-1.5-.415 0-.75 1.087-.75 1.5v3zm-3 0c0 .406.347 1.5.75 1.5.414 0 .75-1.087.75-1.5v-3c0-.406-.348-1.5-.75-1.5-.415 0-.75 1.087-.75 1.5v3z"/></mask><path fill-rule="evenodd" clip-rule="evenodd" d="M10.546 23s-3.33-2.548-4.5-4.5c-1.172-1.952-3.39-4.438-3-6 .39-1.562 1.828-2.054 3-.883 1.17 1.172 1.96 3.71 2.74 3.319.781-.39.195-4.1-.585-6.246C7.42 6.543 6.606 2 8.2 2s1.594 1.5 2.345 3.75c.75 2.25.164 5.25.75 5.25.585 0 .809-.524.809-1.5 0-.265.051-.49.157-.675.283-.498.95-.72 2.034-.72 1.486 0 .75 2.895 1.5 2.895s.75.062.75-1.5.695-1.396 2.195-1.396S19.515 11 20.296 11c.78 0 0-1.5.75-1.5s1.5.237 1.5 3.75.42 3.689-.75 5.25c-1.172 1.561-2.25 3-2.25 3s0 1.5-.805 1.5-1.22-1.5-2.195-1.5c-.976 0-1.5 1.5-1.5 1.5h-4.5zm9-3v-6h-1.5v6h1.5zm-4.5-1.5c0 .406.347 1.5.75 1.5.414 0 .75-1.087.75-1.5v-3c0-.406-.348-1.5-.75-1.5-.415 0-.75 1.087-.75 1.5v3zm-3 0c0 .406.347 1.5.75 1.5.414 0 .75-1.087.75-1.5v-3c0-.406-.348-1.5-.75-1.5-.415 0-.75 1.087-.75 1.5v3z" fill="#fff"/><path d="M10.546 23l-.608.794.269.206h.338v-1zm-4.5-4.5l.857-.515-.858.515zm-3-6l.97.242-.97-.242zm5.74 2.436l-.447-.895.447.895zM8.201 8.69l.94-.342-.94.342zM8.2 2V1v1zm2.345 3.75l-.95.316.95-.316zm.75 5.25v-1 1zm.809-1.5h1-1zm.157-.675l-.87-.494.87.494zm4.284.675h1-1zm2.195-1.396v-1 1zm3.805 5.146h1-1zm-.75 5.25l.8.6-.8-.6zm-2.25 3l-.8-.6-.2.267v.333h1zm-4.5 1.5v1h.71l.233-.67-.944-.33zm4.5-3v1h1v-1h-1zm0-6h1v-1h-1v1zm-1.5 0v-1h-1v1h1zm0 6h-1v1h1v-1zm-7.5 3l.607-.794v-.001l-.007-.004-.025-.02a33.8 33.8 0 01-1.717-1.442c-.976-.879-2-1.918-2.501-2.754l-1.715 1.03c.67 1.116 1.896 2.327 2.878 3.21a35.817 35.817 0 001.868 1.566l.002.002h.001l.609-.793zm-3.643-5.015a31.282 31.282 0 00-1.052-1.594c-.37-.537-.73-1.057-1.04-1.561-.311-.507-.547-.956-.684-1.343-.14-.395-.141-.626-.111-.745l-1.94-.485c-.166.662-.036 1.329.166 1.9.206.58.526 1.167.866 1.72.343.557.733 1.123 1.096 1.65.37.536.71 1.031.984 1.488l1.715-1.03zm-2.887-5.242c.133-.534.393-.71.533-.754.12-.037.401-.052.79.336l1.414-1.415c-.784-.783-1.807-1.138-2.796-.831-.97.3-1.625 1.15-1.882 2.178l1.94.486zm1.322-.418c.473.472.871 1.23 1.368 2.053.216.359.481.778.782 1.077.153.153.377.339.676.443.337.117.715.11 1.07-.068l-.895-1.789a.638.638 0 01.482-.032c.101.035.127.078.078.03-.103-.104-.255-.32-.48-.693-.386-.64-.968-1.737-1.666-2.436l-1.415 1.415zm3.895 3.505c.409-.204.612-.562.713-.815a3.02 3.02 0 00.183-.82c.053-.539.02-1.187-.057-1.84-.155-1.316-.513-2.855-.932-4.007l-1.88.683c.363.996.688 2.384.826 3.557.07.59.085 1.078.053 1.412-.017.169-.042.25-.05.272-.013.033.037-.124.25-.23l.894 1.788zM9.14 8.348c-.362-.996-.738-2.578-.833-3.88-.048-.665-.014-1.156.07-1.441.04-.138.072-.151.04-.12A.336.336 0 018.2 3V1c-.466 0-.881.177-1.196.491-.29.289-.45.648-.546.969-.187.634-.2 1.413-.146 2.152.109 1.506.53 3.269.948 4.42l1.88-.684zM8.2 3c.234 0 .31.051.337.071.044.034.129.12.24.368.113.254.216.587.348 1.05.127.444.275.988.472 1.577l1.897-.632c-.178-.536-.311-1.023-.445-1.494-.129-.45-.266-.914-.446-1.317-.182-.408-.444-.837-.871-1.155C9.287 1.137 8.765 1 8.2 1v2zm1.397 3.066c.32.96.364 2.124.385 3.173.01.483.015.998.062 1.38.023.182.066.442.18.68.123.256.45.701 1.072.701v-2c.475 0 .692.351.731.434.032.066.019.073.002-.06-.03-.252-.036-.627-.047-1.175-.02-1.014-.058-2.475-.488-3.765l-1.897.632zM11.296 12c.3 0 .614-.069.902-.248a1.7 1.7 0 00.612-.682c.24-.471.294-1.044.294-1.57h-2c0 .21-.012.369-.03.487a.694.694 0 01-.045.175s.007-.014.026-.036a.383.383 0 01.24-.126v2zm1.809-2.5c0-.135.025-.18.027-.181l-1.74-.988a2.34 2.34 0 00-.287 1.169h2zm.027-.181c0-.002.003-.008.021-.022a.57.57 0 01.156-.075c.188-.066.5-.118.987-.118v-2c-1.102 0-2.322.203-2.903 1.227l1.739.988zm1.164-.215c.014 0-.026.001-.08-.033-.046-.03-.054-.056-.037-.027.05.09.104.283.151.639.034.259.076.756.147 1.079.038.172.11.44.276.68.2.29.553.558 1.043.558v-2c.302 0 .514.177.604.308.058.084.052.124.03.025-.048-.22-.055-.447-.117-.912-.048-.368-.135-.9-.388-1.352a1.897 1.897 0 00-.63-.683 1.83 1.83 0 00-1-.282v2zm1.5 2.896c.118 0 .39.008.607-.03.135-.024.32-.074.505-.195.196-.127.336-.297.43-.477.157-.301.183-.638.194-.85.014-.248.014-.57.014-.948h-2c0 .403 0 .659-.01.838-.005.088-.011.13-.014.144-.003.018.003-.032.043-.109a.741.741 0 01.49-.372c.025-.005.026-.002-.031-.001h-.229v2zm1.75-2.5c0-.337.04-.46.049-.478l-.01.018a.285.285 0 01-.113.097c-.007.003.01-.006.069-.015a2.25 2.25 0 01.256-.02c.258-.008.52.002.944.002v-2c-.326 0-.714-.01-1.008 0-.3.009-.684.04-1.044.192a1.732 1.732 0 00-.929.929c-.169.389-.214.832-.214 1.275h2zm1.195-.396c.018 0-.018.002-.07-.03-.043-.028-.05-.051-.032-.021.052.091.108.284.159.64.038.263.085.758.164 1.088.042.176.12.444.296.684.21.287.564.535 1.038.535v-2a.73.73 0 01.578.286c.06.082.056.124.033.028-.052-.213-.063-.442-.13-.904-.052-.367-.144-.898-.402-1.35a1.91 1.91 0 00-.634-.677 1.848 1.848 0 00-1-.279v2zM20.296 12c.261 0 .559-.065.824-.264.26-.194.394-.446.462-.645.116-.338.101-.718.1-.851-.003-.25.008-.25-.007-.204a.668.668 0 01-.225.313.672.672 0 01-.404.151v-2c-.267 0-.57.07-.836.28-.257.202-.38.46-.442.653-.103.327-.087.702-.086.827.003.242-.01.237.009.18a.662.662 0 01.231-.305.644.644 0 01.373-.135v2zm.75-1.5c.148 0 .166.015.149.008-.046-.02-.037-.043.01.041.143.252.34.954.34 2.701h2c0-1.766-.177-2.94-.597-3.684-.234-.414-.553-.716-.95-.89a2.33 2.33 0 00-.953-.176v2zm.5 2.75c0 .9.027 1.585.048 2.123.022.553.034.896.017 1.174a1.583 1.583 0 01-.123.573c-.079.183-.217.412-.492.78l1.6 1.2c.31-.413.558-.79.73-1.19a3.57 3.57 0 00.282-1.242c.024-.4.005-.858-.016-1.375a48.15 48.15 0 01-.046-2.043h-2zm-.55 4.65l-1.565 2.086-.499.665a149.034 149.034 0 01-.174.233c-.004.005-.007.01-.01.012a.052.052 0 01-.002.003v.001l.8.6.8.6v-.001l.003-.003.009-.012a20.856 20.856 0 01.174-.233l.5-.665 1.564-2.086-1.6-1.2zm-1.45 3.6h-1v-.004.003l-.001.027a2.401 2.401 0 01-.066.465c-.034.126-.063.162-.052.148A.445.445 0 0118.74 22v2c.564 0 .983-.282 1.244-.608.238-.295.359-.634.426-.883a4.102 4.102 0 00.134-.996V21.5h-1zm-.805.5c.132 0 .178.067.098 0-.092-.078-.189-.19-.377-.406a4.442 4.442 0 00-.677-.662 2.054 2.054 0 00-1.24-.432v2c-.033 0-.03-.019.045.036.09.068.195.177.363.37.138.16.357.422.6.625.254.215.654.469 1.188.469v-2zm-2.195-1.5c-1.023 0-1.659.766-1.945 1.19a4.675 4.675 0 00-.495.967l-.003.008v.003l-.001.001.944.331.943.33v.003l-.001.001.001-.003.01-.027a2.66 2.66 0 01.26-.495c.219-.325.333-.309.287-.309v-2zm-1.5 1.5h-4.5v2h4.5v-2zm5.5-2v-6h-2v6h2zm-1-7h-1.5v2h1.5v-2zm-2.5 1v6h2v-6h-2zm1 7h1.5v-2h-1.5v2zm-4-2.5c0 .385.136.898.303 1.292.087.207.212.452.386.664.145.178.499.544 1.06.544v-2a.73.73 0 01.392.11.5.5 0 01.073.056c.014.013.021.022.022.023.002.002-.01-.012-.029-.046a1.332 1.332 0 01-.063-.13 2.326 2.326 0 01-.112-.344c-.03-.125-.033-.181-.033-.169h-2zm1.75 2.5c.554 0 .908-.353 1.062-.538.177-.214.302-.462.39-.67.167-.4.297-.91.297-1.292h-2c0-.006-.002.055-.031.178a2.258 2.258 0 01-.11.34 1.248 1.248 0 01-.06.126c-.02.033-.03.045-.027.042 0 0 .031-.039.1-.081a.718.718 0 01.378-.105v2zm1.75-2.5v-3h-2v3h2zm0-3c0-.385-.137-.898-.304-1.292a2.746 2.746 0 00-.386-.664c-.145-.178-.499-.544-1.06-.544v2a.73.73 0 01-.392-.11.506.506 0 01-.073-.056c-.014-.013-.021-.022-.022-.023-.002-.002.01.012.029.046a1.5 1.5 0 01.062.13c.046.109.086.232.113.344.03.125.032.181.032.169h2zm-1.75-2.5c-.555 0-.909.353-1.063.539a2.691 2.691 0 00-.39.67c-.168.398-.298.909-.298 1.291h2c0 .006.003-.055.032-.178.027-.112.066-.234.11-.34.022-.052.043-.094.06-.126.02-.033.03-.045.027-.042 0 0-.032.039-.1.081a.718.718 0 01-.379.105v-2zm-1.75 2.5v3h2v-3h-2zm-3 3c0 .385.136.898.303 1.292.087.207.212.452.386.664.145.178.499.544 1.06.544v-2a.73.73 0 01.392.11.5.5 0 01.073.056c.014.013.021.022.022.023.002.002-.01-.012-.029-.046a1.332 1.332 0 01-.063-.13 2.326 2.326 0 01-.112-.344c-.03-.125-.033-.181-.033-.169h-2zm1.75 2.5c.554 0 .908-.353 1.062-.538.177-.214.303-.462.39-.67.167-.4.297-.91.297-1.292h-2c0-.006-.002.055-.031.178a2.258 2.258 0 01-.11.34 1.248 1.248 0 01-.06.126c-.02.033-.03.045-.027.042 0 0 .031-.039.1-.081a.718.718 0 01.378-.105v2zm1.75-2.5v-3h-2v3h2zm0-3c0-.385-.137-.898-.304-1.292a2.746 2.746 0 00-.386-.664c-.145-.178-.499-.544-1.06-.544v2a.73.73 0 01-.392-.11.506.506 0 01-.073-.056c-.014-.013-.021-.022-.022-.023-.002-.002.01.012.029.046a1.5 1.5 0 01.062.13c.046.109.086.232.113.344.03.125.032.181.032.169h2zm-1.75-2.5c-.555 0-.909.353-1.063.539a2.691 2.691 0 00-.39.67c-.168.398-.298.909-.298 1.291h2c0 .006.003-.055.032-.178.027-.112.066-.234.11-.34.022-.052.043-.094.06-.126.02-.033.03-.045.027-.042 0 0-.031.039-.1.081a.718.718 0 01-.379.105v-2zm-1.75 2.5v3h2v-3h-2z" fill="#363B3E" mask="url(#path-1-outside-1_133_348)"/></g><defs><filter id="filter0_d_133_348" x="0" y="0" width="25.619" height="27" filterUnits="userSpaceOnUse" color-interpolation-filters="sRGB"><feFlood flood-opacity="0" result="BackgroundImageFix"/><feColorMatrix in="SourceAlpha" values="0 0 0 0 0 0 0 0 0 0 0 0 0 0 0 0 0 0 127 0" result="hardAlpha"/><feOffset dy="1"/><feGaussianBlur stdDeviation="1"/><feColorMatrix values="0 0 0 0 0.211765 0 0 0 0 0.231373 0 0 0 0 0.243137 0 0 0 1 0"/><feBlend in2="BackgroundImageFix" result="effect1_dropShadow_133_348"/><feBlend in="SourceGraphic" in2="effect1_dropShadow_133_348" result="shape"/></filter></defs></svg>