<svg width="60" height="60" fill="none" xmlns="http://www.w3.org/2000/svg"><g clip-path="url(#clip0_177_26)"><path d="M30 59.987c16.561 0 29.987-13.426 29.987-29.988C59.987 13.44 46.56.013 29.999.013 13.44.012.013 13.438.013 30 .012 46.56 13.438 59.986 30 59.986z" fill="#C3D6EA"/><path d="M30 50.477c11.31 0 20.477-9.168 20.477-20.477C50.477 18.69 41.31 9.523 30 9.523S9.523 18.69 9.523 30 18.691 50.477 30 50.477z" stroke="#961914" stroke-width=".5" stroke-miterlimit="10"/><path d="M32.786 2.518l3.17.499-.076.51-2.57-.408-.204 1.201 1.304.205c.498.077.856.243 1.086.498.23.243.307.563.243.96-.064.408-.255.702-.575.881-.32.18-.741.217-1.265.14l-1.803-.28.69-4.206zm1.19 4.014c.344.05.613.025.817-.077.205-.102.32-.281.358-.537.077-.511-.23-.818-.933-.933l-1.176-.192-.243 1.534 1.176.205zm5.662-.972c.153.282.153.627.013 1.036l-.64 1.828-.524-.18.141-.396c-.14.115-.307.166-.511.192a1.483 1.483 0 01-.64-.102c-.332-.115-.587-.294-.728-.537a.79.79 0 01-.077-.754.815.815 0 01.524-.537c.256-.09.588-.064 1.01.077l.87.306.038-.102c.077-.243.077-.447-.013-.613-.09-.18-.268-.307-.537-.397a1.683 1.683 0 00-.562-.102c-.192 0-.371.026-.524.09l-.09-.486c.205-.077.422-.102.665-.09.243.013.486.051.728.141.422.128.703.345.857.626zm-1.33 2.033a.86.86 0 00.473-.282l.154-.421-.844-.294c-.46-.167-.754-.09-.856.23a.448.448 0 00.05.422c.09.127.231.23.448.306.192.064.397.077.576.039zm5.574-.064c.153.243.217.498.217.792 0 .281-.077.563-.243.844a1.868 1.868 0 01-.6.652 1.454 1.454 0 01-.793.217c-.282 0-.563-.077-.831-.23a1.569 1.569 0 01-.486-.422 1.353 1.353 0 01-.243-.575l-.818 1.444-.511-.28 2.147-3.835.486.268-.243.447c.205-.09.41-.128.627-.115.217.013.434.09.639.205.294.153.498.358.652.588zm-1.47 1.955c.191 0 .37-.05.536-.153.167-.102.307-.256.41-.447a1.24 1.24 0 00.166-.588c0-.205-.052-.371-.141-.537a1.144 1.144 0 00-.422-.396.957.957 0 00-.55-.141c-.191.013-.37.051-.536.153a1.075 1.075 0 00-.41.448 1.24 1.24 0 00-.166.588c0 .191.052.37.141.537a1.1 1.1 0 00.41.396c.178.09.37.14.562.14zm5.061.856c.039.32-.076.653-.345.985l-1.24 1.496-.421-.345.268-.333a.958.958 0 01-.537 0 1.448 1.448 0 01-.575-.32c-.281-.23-.447-.485-.499-.754a.877.877 0 01.18-.74.853.853 0 01.677-.333c.268 0 .575.14.92.422l.716.588.077-.09c.153-.192.23-.383.191-.588-.038-.204-.153-.383-.37-.562a1.852 1.852 0 00-.486-.282 1.578 1.578 0 00-.511-.102l.09-.486c.217 0 .434.052.651.141.217.09.435.217.64.384.331.306.523.6.574.92zm-1.955 1.458a.867.867 0 00.536-.102l.282-.345-.69-.576c-.384-.32-.678-.345-.883-.089a.468.468 0 00-.102.422c.039.153.14.294.32.434.179.141.358.23.537.256zm3.758-.153l.383.447-1.035.882 1.188 1.393 1.036-.882.383.448-2.441 2.083-.383-.447 1.022-.87-1.189-1.393-1.022.87-.384-.448 2.442-2.083zm3.093 3.911l.294.511-2.032 1.163 3.016.563.256.46-2.8 1.585-.28-.511 2.032-1.163-3.004-.55-.269-.46 2.787-1.598zm2.326 4.448l.192.55-1.29.447.6 1.739 1.29-.448.193.55-3.043 1.048-.191-.55 1.278-.434-.588-1.738-1.278.434-.192-.55 3.03-1.048zm1.458 6.954c-.18.268-.486.434-.908.498l-1.917.294-.09-.55.422-.063a.993.993 0 01-.409-.358 1.654 1.654 0 01-.217-.614c-.051-.358-.013-.652.127-.894a.813.813 0 01.627-.422.873.873 0 01.728.204c.205.18.333.486.41.933l.14.908.115-.013c.243-.038.422-.14.537-.307.102-.166.14-.383.102-.664a1.567 1.567 0 00-.179-.537 1.528 1.528 0 00-.32-.422l.397-.307c.153.14.294.32.396.537.103.217.18.447.218.703.063.447 0 .805-.18 1.074zm-2.416-.217a.86.86 0 00.473.28l.447-.063-.14-.882c-.077-.486-.282-.703-.601-.652-.154.026-.282.102-.345.243-.077.14-.09.32-.064.537.025.217.115.396.23.537zm4.665 5.879l-.038.525-5.573-2.365.038-.524 5.573 2.364zm-4.231 4.78l.256-.843-1.79-.537.167-.575 4.077 1.202-.166.575-1.764-.524-.256.856 1.394 1.803-.18.626-1.546-2.032-2.556.907.191-.665 2.173-.792zm-1.291 5.92c-.243.152-.498.23-.78.242-.28.013-.562-.064-.856-.217-.281-.154-.511-.345-.664-.588a1.554 1.554 0 01-.243-.78c0-.281.063-.562.204-.83.102-.205.243-.371.41-.5a1.47 1.47 0 01.574-.255l-1.47-.78.269-.511 3.886 2.058-.256.498-.447-.242c.102.191.14.409.127.626a1.48 1.48 0 01-.191.639c-.14.269-.333.486-.563.64zm-1.994-1.432c.013.191.064.37.166.536.103.167.256.294.46.397.192.102.397.153.589.153.191 0 .37-.051.536-.153.154-.103.282-.243.384-.422a1.054 1.054 0 00-.038-1.074 1.13 1.13 0 00-.448-.396 1.26 1.26 0 00-.588-.154c-.192 0-.37.052-.537.154a1.02 1.02 0 00-.383.422c-.102.166-.14.358-.14.537zm-1.866 2.096c.268-.115.55-.14.83-.102.282.038.55.166.793.358a1.598 1.598 0 01.614 1.52 1.77 1.77 0 01-.37.806 1.759 1.759 0 01-.691.55c-.268.114-.537.14-.83.102a1.647 1.647 0 01-.793-.358 1.61 1.61 0 01-.524-.69 1.542 1.542 0 01-.09-.831c.051-.282.166-.55.37-.806a1.7 1.7 0 01.691-.55zm-.537 1.38c-.025.192 0 .371.077.55.077.179.204.332.37.473.167.14.358.23.55.255.192.026.37.013.55-.05.179-.077.32-.192.447-.346a1.07 1.07 0 00.23-.524 1.01 1.01 0 00-.064-.55 1.199 1.199 0 00-.37-.472 1.134 1.134 0 00-.55-.256 1.127 1.127 0 00-.55.051 1.001 1.001 0 00-.46.345 1.268 1.268 0 00-.23.524zm-1.866 5.484l-2.135-2.403.435-.384 1.79 2.033 1.035-.92-.448-.563a7.379 7.379 0 01-.626-.882 1.752 1.752 0 01-.256-.703.66.66 0 01.23-.55 1.15 1.15 0 01.307-.191l.294.396c-.05.025-.09.051-.128.077a.364.364 0 00-.127.396c.038.153.102.32.217.485.115.167.281.384.498.665l.742.933-1.828 1.61zm-1.56 1.176l-.498.294-1.201-2.007-.486 3.017-.448.268-1.648-2.76.498-.295 1.201 2.007.486-3.017.46-.28 1.636 2.773zm-6.25 1.125l.626-.243-.485-1.266.536-.204 1.15 3.004-.549.204-.486-1.265-.639.243-.485 1.636-.588.217.588-1.879-1.815-1.1.639-.242 1.508.895zm-11.568 4.41l-3.17-.512.09-.511 2.569.41.191-1.203-1.303-.204c-.499-.077-.857-.243-1.087-.498-.23-.243-.307-.576-.243-.96.064-.408.256-.702.575-.881.32-.18.742-.218 1.253-.14l1.802.28-.677 4.219zm-1.176-4.014c-.345-.051-.613-.026-.818.077-.204.102-.32.28-.358.536-.077.512.23.819.933.934l1.176.191.243-1.534-1.176-.204zm-5.663.959c-.153-.282-.153-.627-.012-1.036l.639-1.828.524.18-.14.396c.14-.115.306-.166.51-.192.192-.013.41.013.64.102.345.115.588.294.728.537a.87.87 0 01.077.754.815.815 0 01-.524.537c-.256.09-.588.064-1.01-.077l-.87-.306-.037.115c-.077.23-.077.447.012.613.09.18.269.307.537.396.18.064.37.09.563.103.191 0 .37-.026.524-.09l.09.499a1.861 1.861 0 01-.666.09 2.455 2.455 0 01-.728-.141c-.422-.154-.716-.371-.857-.652zm1.33-2.033a.83.83 0 00-.473.282l-.154.421.844.294c.46.166.754.09.857-.217a.448.448 0 00-.052-.422c-.089-.128-.23-.23-.447-.307a1 1 0 00-.575-.05zm-5.573.051a1.424 1.424 0 01-.217-.792c0-.294.076-.563.242-.844.154-.281.358-.498.601-.652.243-.153.511-.217.793-.217.28 0 .562.077.83.23.205.115.358.256.486.422.128.166.205.37.23.575l.818-1.444.512.281-2.16 3.822-.486-.269.255-.447c-.204.09-.409.128-.626.102a1.5 1.5 0 01-.64-.204 1.38 1.38 0 01-.638-.563zm1.483-1.942a.999.999 0 00-.537.153 1.16 1.16 0 00-.41.447 1.111 1.111 0 00-.025 1.125 1.1 1.1 0 00.41.396.957.957 0 00.549.14c.192-.012.37-.05.537-.153.166-.102.306-.242.409-.447a1.11 1.11 0 00.166-.588.993.993 0 00-.14-.537 1.107 1.107 0 00-.41-.396.982.982 0 00-.55-.14zm-5.062-.87c-.039-.32.077-.652.345-.984l1.24-1.495.422.357-.269.333a.956.956 0 01.537 0c.192.05.37.153.562.32.282.23.448.485.499.754a.835.835 0 01-.192.74.853.853 0 01-.677.333c-.269 0-.575-.14-.92-.422l-.716-.588-.077.09c-.154.192-.23.383-.205.588.026.192.154.383.371.562.154.115.307.218.486.282.179.063.358.102.511.102l-.09.485c-.217 0-.434-.05-.651-.14a2.57 2.57 0 01-.64-.384c-.306-.32-.498-.613-.536-.933zm1.943-1.457a.788.788 0 00-.537.102l-.281.346.69.575c.383.32.677.345.882.09.102-.129.14-.27.102-.41-.038-.14-.14-.294-.32-.434a1.071 1.071 0 00-.536-.269zm-3.758.154l-.384-.448 1.036-.882-1.19-1.393-1.022.882-.383-.448 2.454-2.083.37.447-1.022.87 1.189 1.393 1.022-.87.384.448-2.454 2.084zM7.695 44.52l-.294-.51 2.032-1.164-3.016-.55-.256-.46 2.8-1.597.28.51-2.032 1.164 3.017.55.268.46-2.8 1.598zm-2.326-4.486l-.192-.55 1.29-.447-.587-1.725-1.291.434-.192-.55 3.042-1.035.192.55-1.278.434.588 1.739 1.278-.435.192.55-3.042 1.035zm-1.458-6.915c.18-.269.486-.435.908-.499l1.917-.294.09.55-.422.064a.993.993 0 01.409.358c.102.166.179.37.217.613.051.358.013.652-.128.895a.812.812 0 01-.626.422.873.873 0 01-.728-.205c-.205-.179-.333-.485-.41-.933l-.14-.907-.115.013c-.243.038-.422.14-.524.306-.103.166-.14.384-.103.665.026.192.09.37.18.537.089.166.191.307.319.422l-.396.306a1.726 1.726 0 01-.397-.536 2.507 2.507 0 01-.217-.703c-.064-.448-.013-.806.166-1.074zm2.429.217a.86.86 0 00-.473-.281l-.447.064.14.882c.077.486.282.703.601.652.166-.026.281-.102.345-.243.064-.14.09-.32.051-.537a1.02 1.02 0 00-.217-.537zm-4.666-5.918l.039-.524 5.573 2.377-.038.512-5.574-2.365zm4.257-4.819l-.256.857 1.79.524-.166.575-4.078-1.202.166-.575 1.764.524.256-.856-1.393-1.803.179-.626 1.546 2.045 2.557-.907-.192.664-2.173.78zm1.265-5.841c.243-.154.499-.23.78-.243.281-.013.563.064.857.217.28.153.51.345.664.588.154.243.23.498.243.78 0 .281-.064.562-.204.843a1.432 1.432 0 01-.41.499 1.307 1.307 0 01-.575.256l1.47.78-.268.51-3.912-2.07.269-.499.447.243a1.203 1.203 0 01-.128-.626c.013-.218.077-.435.192-.64a1.64 1.64 0 01.575-.638zm1.982 1.431a.944.944 0 00-.167-.524c-.102-.166-.255-.294-.46-.409a1.262 1.262 0 00-.588-.153c-.191 0-.37.05-.537.153a1.228 1.228 0 00-.383.422c-.09.179-.14.358-.128.55.013.191.064.37.166.536.103.167.256.294.46.397.192.102.397.153.589.153.191 0 .37-.051.536-.153.154-.103.282-.243.384-.422.09-.18.14-.358.128-.55zm1.892-2.122c-.269.115-.55.14-.831.103a1.648 1.648 0 01-.793-.358 1.61 1.61 0 01-.524-.69 1.676 1.676 0 01-.09-.831c.052-.282.18-.55.371-.806.205-.255.435-.434.703-.537.269-.115.537-.14.831-.102.294.039.55.166.793.358.243.192.421.422.524.69.102.269.127.55.09.831a1.65 1.65 0 01-.371.806 1.882 1.882 0 01-.704.536zm.536-1.38c.026-.192 0-.37-.076-.55a1.2 1.2 0 00-.371-.473 1.085 1.085 0 00-.55-.255.89.89 0 00-.55.038 1.343 1.343 0 00-.46.345 1.07 1.07 0 00-.166 1.074 1.266 1.266 0 00.92.741.995.995 0 00.55-.05c.18-.065.333-.18.46-.346.128-.166.218-.345.243-.524zm1.879-5.484l2.122 2.416-.434.384-1.79-2.033-1.035.908.434.562c.269.345.486.64.627.895.14.255.23.486.255.703a.66.66 0 01-.23.55 1.15 1.15 0 01-.307.191l-.294-.396a.46.46 0 00.128-.09.388.388 0 00.128-.396 1.463 1.463 0 00-.217-.485c-.115-.141-.281-.371-.499-.652l-.741-.933 1.853-1.624zm1.572-1.163l.499-.294 1.202 2.007.485-3.03.448-.268 1.649 2.761-.499.294-1.201-2.007-.486 3.017-.46.268-1.636-2.748zm6.238-1.125l-.626.243.486 1.266-.55.204-1.138-3.004.55-.204.486 1.265.639-.243.498-1.636.588-.217-.588 1.879 1.816 1.1-.64.242-1.52-.895zm21.743 15.978l-.793-.294a4.127 4.127 0 00-3.72.422l-7.068-1.253a1.057 1.057 0 00-1.163.614 1.05 1.05 0 00.32 1.278 7.598 7.598 0 003.49 1.534l-2.468.895a1.062 1.062 0 00-.703 1.125c.051.498.422.882.908.945a7.815 7.815 0 005.394-1.227c.09.243.217.473.37.703l.039.039-3.042 2.134a5.284 5.284 0 00-1.598 1.764.376.376 0 00.14.512.367.367 0 00.41-.026.28.28 0 00.114-.128c.346-.6.806-1.112 1.368-1.508l3.132-2.186a3.279 3.279 0 004 .192l1.394-.984c.575 1.06.83 2.25.741 3.45l-.217-.319a.372.372 0 00-.524-.09.372.372 0 00-.09.525l1.445 2.058a.372.372 0 00.524.09 1.38 1.38 0 011.649.05l-1.815 1.266-2.774-2.39c-.153-.141-.396-.116-.537.038-.14.153-.115.396.039.537l1.355 1.176a6.37 6.37 0 01-.703.933 2.103 2.103 0 00-.972.153 3.144 3.144 0 00-.396-.613c-.959-1.125-2.62-1.368-3.797-.55a3.042 3.042 0 00-1.252 1.892c-.154.78 0 1.56.46 2.211.281.41.652.716 1.06.92a4.59 4.59 0 01-3.834-1.955 4.782 4.782 0 01-.767-1.84.376.376 0 10-.741.127c.14.767.434 1.495.882 2.135.23.332.498.639.792.894a2.115 2.115 0 00-.166 2.62 2.111 2.111 0 002.94.525c.575-.41.908-1.074.895-1.764a5.391 5.391 0 002.99-.959l3.388-2.365a.372.372 0 00.09-.524 2.151 2.151 0 00-.767-.677c.179-.217.332-.435.486-.665l1.06.908c.128.115.32.128.46.025l2.404-1.687a.372.372 0 00.09-.524 2.135 2.135 0 00-2.634-.716l-.37-.537a7.104 7.104 0 00-.819-4.895c.716-.87.793-2.148.115-3.106a2.554 2.554 0 00-1.214-.908zM36.417 40.7a1.35 1.35 0 01-1.88-.333 1.354 1.354 0 01.141-1.725 5.326 5.326 0 002.314.869c.026.46-.192.92-.575 1.189zm3.898-2.723a2.168 2.168 0 01-3.016-.524c-.69-.984-.422-2.326.613-3.042.857-.6 2.071-.41 2.787.422.192.23.332.485.422.767a.383.383 0 00.242.243.372.372 0 00.346-.052 1.38 1.38 0 011.648.052l-3.042 2.134zm-9.228-14.904a.291.291 0 01-.09-.37.306.306 0 01.345-.18l6.468 1.138c-.077.09-.14.179-.205.281l-1.623.588a7.031 7.031 0 01-4.895-1.457zm.869 4.346c-.218-.026-.256-.217-.269-.268 0-.052-.013-.256.205-.333l5.24-1.904c-.114.396-.14.83-.089 1.24a7.122 7.122 0 01-5.087 1.265zm11.223-.626l-1.458 1.022a2.513 2.513 0 01-3.49-.613 2.513 2.513 0 01.614-3.49 3.375 3.375 0 013.132-.396l.793.294c.345.128.651.358.856.665a1.796 1.796 0 01-.447 2.518z" fill="#961914"/><path d="M40.469 24.76a.353.353 0 00-.154.242c-.012.102 0 .205.064.281.064.077.14.141.243.154.102.013.205 0 .281-.064a.353.353 0 00.154-.243c.012-.102 0-.204-.064-.281a.354.354 0 00-.243-.154.333.333 0 00-.281.064zm-7.491 8.909a.42.42 0 01-.28.063.353.353 0 01-.244-.153.42.42 0 01-.064-.281.353.353 0 01.154-.243.42.42 0 01.28-.064.353.353 0 01.244.153.42.42 0 01.064.282.316.316 0 01-.154.242zM24.12 20.695a.37.37 0 100-.742.37.37 0 000 .742z" fill="#961914"/><path d="M12.744 35.062l1.674 1.84a9.037 9.037 0 004.41 2.685l1.15 1.278a.322.322 0 00.256.115l1.036.051a.4.4 0 00.268-.09l.55-.485c.153-.14.166-.37.025-.511l-2.109-2.34 1.036.052 1.125 1.252a.322.322 0 00.255.115l1.035.051a.401.401 0 00.269-.089l.55-.486c.153-.14.166-.37.025-.511l-2.467-2.735a2.42 2.42 0 00.55-1.061c.09-.346.281-.665.537-.908l1.431-1.29c.448.242.933.42 1.42.549l.677.166 1.15 1.278a.322.322 0 00.256.115l1.035.051a.401.401 0 00.268-.09l.55-.485a.353.353 0 00.026-.511l-2.378-2.633 1.278.32 1.15 1.277a.322.322 0 00.256.115l1.036.052a.401.401 0 00.268-.09l.55-.486c.153-.14.166-.37.025-.51l-3.937-4.347-.012.013a4.356 4.356 0 00-1.138-2.927l-.984-1.087.971-.882c.14-.127.256-.294.333-.473a1.24 1.24 0 00-.716-1.623l-.396-.153.51-.46a.322.322 0 00.116-.256l.051-1.036a.36.36 0 00-.345-.383l-1.036-.051a.401.401 0 00-.268.09l-.55.485a1.823 1.823 0 00-2.582-.128l-1.01.908a5.343 5.343 0 00-1.623 2.786 4.553 4.553 0 01-1.393 2.403l-4.806 4.346a4.744 4.744 0 00-.358 6.724zM25.91 18.713l-.435.384-.486-.55.435-.383.511.025-.025.524zm-.716 3.605l-.984-.243-.665-.729c-.14-.153-.37-.166-.511-.025l-.703.639-.512-.026.026-.51.703-.64a.33.33 0 00.09-.14l.268-.678 1.29-1.176 1.228 1.355-.268.243.485.55.512-.46a.525.525 0 01.14.87l-1.1.97zm4.998 9.1l-.882-.97.55-.486 1.227 1.355-.154.14-.741-.038zm-3.26-1.84a4.228 4.228 0 00.895-1.866l1.534 1.7-.665.6-1.764-.434zm1.087 3.81l-.882-.972.55-.486 1.226 1.355-.153.14-.741-.038zm-5.433 4.92l-.882-.971.55-.486 1.227 1.355-.166.14-.729-.037zm-2.569-1.431l1.253-1.125.485.55-.703.639-1.035-.064zm.396 3.387l-.882-.971.55-.486 1.227 1.355-.153.14-.742-.038zm-7.132-5.688a4.024 4.024 0 01.281-5.688l4.806-4.346a5.343 5.343 0 001.623-2.787 4.552 4.552 0 011.394-2.403l1.01-.907c.345-.307.856-.37 1.265-.154l-1.317 1.19a.332.332 0 00-.09.14l-.268.677-.754.678a.322.322 0 00-.115.255l-.05 1.036a.36.36 0 00.344.383l1.036.051a.401.401 0 00.268-.09l.55-.485.486.55c.05.05.114.09.178.115l1.176.294 1.15 1.278a3.664 3.664 0 010 4.921l-.97-1.073-.55.485 2.454 2.723-.665.6-.6-.153a5.669 5.669 0 01-2.825-1.7l-.55.486c.332.37.703.69 1.112.971l-1.265 1.15a2.59 2.59 0 00-.767 1.266c-.09.345-.282.665-.537.908l-1.956 1.764-1.47-1.636-.55.485 2.455 2.723-.652.575a8.264 8.264 0 01-3.963-2.454l-1.674-1.828z" fill="#961914"/></g><defs><clipPath id="clip0_177_26"><path fill="#fff" d="M0 0h60v60H0z"/></clipPath></defs></svg>