<svg width="60" height="65" fill="none" xmlns="http://www.w3.org/2000/svg"><path d="M40 60c8.284 0 15-6.716 15-15 0-8.284-6.716-15-15-15-8.284 0-15 6.716-15 15 0 8.284 6.716 15 15 15zm6.497-11.25a7.505 7.505 0 01-12.994 0" stroke="#961914" stroke-width="2" stroke-linecap="round" stroke-linejoin="round"/><path d="M34.375 43.75a1.875 1.875 0 100-3.75 1.875 1.875 0 000 3.75zm11.25 0a1.875 1.875 0 100-3.75 1.875 1.875 0 000 3.75z" fill="#961914"/><path d="M29.985 10.522C29.74 7.648 29.262 4.802 28.81 2m-9.567 13.17l-5.495-5.814M9.715 26.927c-1.673-.482-3.397-.764-5.022-1.382-1.011-.384-1.807-.02-2.693-.958" stroke="#EC7973" stroke-width="3" stroke-linecap="round"/></svg>