<svg width="60" height="60" fill="none" xmlns="http://www.w3.org/2000/svg"><g clip-path="url(#clip0_177_119)"><path d="M30 59.987c16.56 0 29.987-13.427 29.987-29.987C59.987 13.438 46.56.012 30 .012 13.438.012.012 13.438.012 30 .012 46.56 13.438 59.987 30 59.987z" fill="#EAD1D0"/><path d="M30 50.473c11.307 0 20.473-9.166 20.473-20.473 0-11.307-9.166-20.473-20.473-20.473C18.693 9.527 9.527 18.693 9.527 30c0 11.307 9.166 20.473 20.473 20.473z" stroke="#961914" stroke-width=".5" stroke-miterlimit="10"/><path d="M35.453 3.404l-2.165-.297-.503 3.687-.606-.09.58-4.203 2.759.387-.065.516zm.039 3.674a1.584 1.584 0 01-.425-.722c-.078-.284-.065-.567.013-.877.09-.31.232-.554.438-.76.206-.207.451-.336.735-.4a1.897 1.897 0 011.663.451c.206.206.348.438.412.722.078.284.065.567-.013.877a1.69 1.69 0 01-.425.76c-.193.207-.451.336-.735.413-.283.064-.58.064-.89-.026a1.763 1.763 0 01-.773-.438zm1.483-.052a1.01 1.01 0 00.477-.283c.142-.142.232-.323.296-.529a1.22 1.22 0 00.026-.606 1.024 1.024 0 00-.27-.49c-.142-.142-.31-.219-.503-.283a1.063 1.063 0 00-.568-.013c-.18.051-.348.141-.477.283a1.411 1.411 0 00-.296.529 1.21 1.21 0 00-.026.606.883.883 0 00.27.49c.13.129.297.232.49.283a.991.991 0 00.58.013zm4.86 1.714c-.116.259-.31.413-.567.452-.258.052-.58-.013-.954-.193L38.92 8.34l1.38-2.913 1.353.644c.349.168.58.348.71.58.129.232.141.452.025.684a.717.717 0 01-.309.335.815.815 0 01-.464.09c.322.27.4.606.219.98zm-.838-.038c.142-.013.245-.103.322-.245.065-.154.078-.283.013-.412-.064-.13-.206-.232-.425-.335l-.877-.413-.412.877.85.4c.207.102.387.141.529.128zm-.786-1.779l.786.374c.206.09.374.129.516.103a.4.4 0 00.31-.245c.128-.283-.014-.516-.413-.709l-.8-.374-.4.851zm6.188 2.063l-1.844 2.63-.425-.297.58-.838-.76-.541-.052-.039-1.16.426-.516-.361 1.276-.452c-.155-.193-.245-.4-.245-.618a.898.898 0 01.206-.62c.207-.296.477-.463.787-.476.322-.013.657.103 1.018.36l1.135.826zm-2.592.167c.052.168.194.323.413.477l.735.516.722-1.031-.71-.503c-.45-.322-.811-.31-1.056.039-.116.167-.155.335-.104.502zm4.487 5.312l-.89.89-.386-.387.528-.529-1.895-1.908-.529.529-.386-.387.89-.89.115.117c.155.141.361.128.606 0 .258-.142.567-.387.954-.723l.8-.734 1.753 1.766-1.921 1.908.361.348zm-1.431-2.243c-.22.155-.425.219-.606.206l1.264 1.276 1.56-1.547-.98-.992-.465.412a5.06 5.06 0 01-.773.645zm4.332 1.573l.322.477-1.934 1.315 3.043.322.296.438-2.668 1.805-.323-.477 1.934-1.315-3.042-.31-.297-.438 2.669-1.817zm2.681 4.28l.232.541-1.25.542.722 1.676 1.25-.542.232.542-2.952 1.276-.232-.541 1.238-.529-.735-1.676-1.238.529-.232-.529 2.965-1.29zm1.986 6.807c-.155.284-.452.464-.864.567l-1.882.451-.13-.541.413-.103a.94.94 0 01-.425-.323 1.563 1.563 0 01-.258-.593c-.077-.348-.065-.644.052-.902a.857.857 0 01.593-.477.872.872 0 01.734.142c.22.154.374.464.477.902l.22.903.116-.026c.245-.052.412-.168.515-.348.103-.18.116-.4.052-.67a1.52 1.52 0 00-.22-.516 1.282 1.282 0 00-.347-.387l.373-.335c.168.129.31.296.439.502.129.207.219.439.27.697.065.412.04.773-.128 1.057zm-2.424-.026c.129.129.296.22.49.245l.438-.103-.206-.877c-.116-.477-.335-.683-.658-.606a.434.434 0 00-.322.271c-.064.142-.064.322-.013.541.052.22.142.4.271.53zm5.118 5.531l.013.528-5.737-1.933v-.53l5.724 1.935zm-1.199 4.215l-.142.58-3.184-.76 2.604 3.21-.129.542-4.125-.98.142-.58 3.184.76-2.591-3.21.129-.541 4.112.98zm-2.578 5.312l-.245.529-1.238-.58-.773 1.663 1.237.58-.245.528-2.913-1.353.245-.529 1.224.567.774-1.663-1.225-.567.245-.529 2.914 1.354zm-6.369 5.492l-1.018-.735.309-.438.606.438 1.573-2.178-.606-.439.322-.451 1.019.735-.104.142c-.116.18-.077.373.104.593.18.219.477.502.863.812l.851.67-1.457 2.024-2.204-1.572-.258.4zm1.973-1.779c-.181-.193-.284-.387-.31-.554l-1.044 1.47 1.779 1.276.812-1.135-.49-.387a8.525 8.525 0 01-.748-.67zm-4.177 5.247l1.869-1.818a1.002 1.002 0 00-.748-.232c-.27.026-.516.142-.748.361-.27.271-.412.58-.4.928l-.49-.051a1.5 1.5 0 01.117-.658c.09-.219.232-.412.425-.593.245-.232.516-.4.8-.477a1.47 1.47 0 01.85 0c.271.078.529.232.748.464.22.22.361.477.439.748.077.284.077.555 0 .825a1.59 1.59 0 01-.452.722c-.219.22-.464.348-.734.426a1.591 1.591 0 01-.813-.026c-.27-.077-.515-.245-.748-.477a1.36 1.36 0 01-.115-.142zm2.397-.812a1.045 1.045 0 00-.232-.71l-1.482 1.432a1 1 0 00.696.245c.258 0 .477-.103.683-.297a1.02 1.02 0 00.335-.67zM46.09 51.26l-.49.321-1.303-1.946-.348 3.042-.438.297-1.78-2.682.49-.322 1.303 1.947.335-3.043.438-.296 1.792 2.681zm-.323.979c.22.026.4.155.554.374l-.322.219a.543.543 0 00-.322-.22c-.13-.025-.27.014-.413.104a.584.584 0 00-.258.335.469.469 0 00.065.387l-.335.22c-.142-.233-.194-.452-.13-.658.065-.207.22-.4.465-.568.245-.154.49-.219.696-.193zm-5.853.438l.606-.27-.541-1.251.528-.232 1.276 2.952-.541.232-.541-1.25-.62.27-.412 1.664-.567.244.503-1.907-1.857-1.006.632-.27 1.534.824zm-4.332 3.043c-.283-.155-.477-.438-.58-.864l-.477-1.882.542-.142.103.413c.051-.168.167-.31.322-.439a1.68 1.68 0 01.593-.27c.348-.09.645-.078.903.038.257.116.412.31.49.58a.867.867 0 01-.13.735c-.154.22-.45.387-.889.49l-.89.232.026.116c.065.245.18.413.348.503.168.09.4.103.67.039a1.55 1.55 0 00.516-.232 1.74 1.74 0 00.387-.361l.348.36a1.668 1.668 0 01-.502.439c-.207.129-.439.22-.684.283-.451.142-.812.117-1.096-.038zm-.013-2.424a.833.833 0 00-.232.49l.103.438.864-.219c.477-.116.684-.335.593-.657a.434.434 0 00-.27-.323c-.142-.064-.323-.064-.542 0a.912.912 0 00-.516.271zm-11.706 3.12l2.153.374.62-3.661.592.103-.722 4.19-2.746-.464.103-.542zm.065-3.687c.206.206.335.451.412.735a1.7 1.7 0 01-.038.876 1.62 1.62 0 01-.451.748 1.56 1.56 0 01-.735.387c-.284.064-.58.051-.89-.052-.31-.09-.567-.232-.76-.438a1.491 1.491 0 01-.4-.722 1.7 1.7 0 01.039-.877c.09-.296.232-.554.45-.747.22-.194.452-.323.736-.387a1.75 1.75 0 01.89.038c.296.078.54.233.747.439zm-1.483.013c-.18.051-.348.142-.477.27a1.2 1.2 0 00-.31.529c-.064.22-.077.413-.038.606a.95.95 0 00.258.49c.129.142.296.232.49.296.193.065.387.065.567.026a.978.978 0 00.49-.27 1.2 1.2 0 00.31-.53 1.09 1.09 0 00.025-.605.951.951 0 00-.258-.49 1.116 1.116 0 00-.49-.297 1.069 1.069 0 00-.567-.025zm-4.795-1.857c.128-.258.322-.4.58-.438.257-.039.58.039.953.232l1.38.71-1.457 2.861-1.328-.683c-.335-.168-.567-.374-.696-.593-.129-.22-.129-.451-.013-.696a.653.653 0 01.323-.323.931.931 0 01.464-.077c-.323-.297-.4-.619-.207-.993zm1.572 1.87l-.773-.4c-.194-.103-.361-.142-.503-.116-.142.013-.245.103-.31.232-.141.27-.012.516.4.722l.774.4.412-.838zm-.748-1.805a.379.379 0 00-.322.232c-.077.154-.077.283-.026.4.065.128.207.244.413.347l.864.439.438-.864-.838-.425c-.206-.09-.387-.142-.529-.13zm-5.388-.464l1.933-2.566.413.31-.606.812.748.567.051.039 1.174-.387.502.374-1.289.412c.155.207.232.413.232.62 0 .205-.077.412-.219.618-.22.297-.49.438-.8.451-.322 0-.657-.129-1.005-.387l-1.134-.863zm2.59-.078c-.05-.167-.18-.322-.399-.49l-.709-.541-.76 1.018.696.516c.45.335.799.335 1.057 0 .116-.18.155-.348.116-.503zm-4.279-5.428l.915-.863.374.4-.541.502 1.83 1.96.542-.503.373.4-.915.85-.116-.128c-.155-.142-.348-.142-.606-.013-.258.129-.58.36-.967.696l-.825.71-1.714-1.806 1.972-1.843-.322-.361zm1.353 2.296c.232-.142.426-.207.606-.194l-1.224-1.315-1.612 1.496.954 1.018.477-.4c.31-.257.567-.464.8-.605zm-4.293-1.741l-.31-.49 1.973-1.25-3.03-.413-.283-.451 2.72-1.715.31.49-1.986 1.25 3.03.413.284.451-2.708 1.715zm-2.552-4.37l-.22-.542 1.264-.503-.658-1.701-1.263.502-.22-.541L7.8 37.194l.219.541-1.25.49.67 1.702 1.25-.49.22.541-3.004 1.187zm-1.767-6.82c.168-.271.465-.451.89-.542l1.895-.387.116.542-.425.077a.97.97 0 01.425.336c.116.154.194.36.245.605.077.349.052.658-.077.903a.838.838 0 01-.606.451c-.284.052-.529 0-.735-.167-.206-.168-.361-.477-.451-.916l-.18-.902-.117.026c-.245.051-.425.154-.515.335-.104.167-.13.386-.065.67a1.69 1.69 0 00.542.929l-.374.322a1.858 1.858 0 01-.426-.516 2.357 2.357 0 01-.258-.696c-.09-.439-.051-.8.116-1.07zm2.424.09a.865.865 0 00-.49-.258l-.438.09.18.877c.104.49.31.696.632.619.155-.039.27-.116.335-.258.065-.142.078-.322.026-.541a.96.96 0 00-.245-.53zm-4.95-5.698l.012-.529 5.686 2.101-.013.529-5.685-2.101zm1.34-4.203l.155-.58 3.159.863-2.501-3.287.141-.542 4.1 1.122-.155.567-3.158-.863L7.18 25.1l-.142.541-4.087-1.108zm2.733-5.209l.258-.515 1.225.619.825-1.638-1.225-.619.271-.515 2.875 1.456-.258.516-1.199-.606-.825 1.637 1.2.607-.259.515-2.888-1.457zm6.563-5.311l.992.76-.335.439-.593-.451-1.637 2.127.593.451-.335.438-.993-.76.103-.13c.116-.167.09-.373-.09-.605a6.271 6.271 0 00-.838-.851l-.838-.696 1.521-1.986 2.14 1.65.31-.386zm-2.037 1.715c.18.206.27.386.283.567l1.096-1.431-1.74-1.341-.851 1.109.477.4c.31.257.554.49.735.696zm4.331-5.093L12.61 12.39c.219.18.464.271.734.258.271-.013.529-.129.761-.335.284-.258.426-.567.426-.915l.49.064c0 .22-.04.438-.142.658a1.91 1.91 0 01-.452.593 1.895 1.895 0 01-.812.45 1.473 1.473 0 01-.85-.025 2.045 2.045 0 01-.71-.503 1.77 1.77 0 01-.412-.76 1.624 1.624 0 01.026-.825c.09-.271.244-.503.477-.71.232-.206.476-.348.747-.4.27-.05.542-.038.812.052.271.09.516.258.735.503a.807.807 0 01.103.142zm-2.41.722a.962.962 0 00.206.71l1.521-1.393a1.03 1.03 0 00-.696-.271c-.258 0-.49.09-.696.284-.194.193-.31.412-.335.67zm2.952-4.074c-.22-.039-.4-.168-.542-.4l.336-.206a.428.428 0 00.322.22c.129.025.27 0 .413-.09.141-.091.232-.194.27-.323a.462.462 0 00-.051-.387l.348-.22c.142.233.18.452.103.671-.065.207-.232.4-.477.555-.27.154-.503.219-.722.18zm-.348.967l.49-.31 1.237 1.986.439-3.03.45-.283 1.703 2.733-.49.31-1.238-1.986-.451 3.03-.451.283-1.69-2.733zm6.214-1.225l-.619.245.503 1.264-.542.219-1.186-2.991.542-.22.503 1.264.631-.258.464-1.65.58-.232-.554 1.895 1.83 1.07-.644.258-1.508-.864zm4.422-2.9c.27.167.464.45.554.876l.413 1.895-.542.116-.09-.412a.886.886 0 01-.335.425 1.562 1.562 0 01-.593.258c-.348.077-.658.052-.903-.064a.862.862 0 01-.464-.606.835.835 0 01.155-.735c.168-.206.464-.361.902-.464l.903-.194-.026-.116c-.052-.245-.168-.412-.335-.515-.168-.104-.4-.116-.67-.052a2.073 2.073 0 00-.53.206c-.167.103-.296.22-.399.348l-.335-.373c.129-.168.31-.31.516-.426.206-.116.438-.206.696-.258.451-.103.812-.077 1.083.09zm-.052 2.423a.95.95 0 00.258-.49l-.103-.438-.877.193c-.49.104-.683.323-.619.645.04.155.116.27.271.335.142.065.323.078.542.026.219-.052.386-.142.528-.27zm18.874 23.709a.452.452 0 00-.36-.18.64.64 0 01-.426-.155c-.374-.271-.825-.387-1.34-.323a2.4 2.4 0 00.309-1.16v-.026a.451.451 0 00-.465-.45.451.451 0 00-.45.463v.026c0 .451-.22.877-.594 1.134a2.445 2.445 0 00-1.109-.232c-.4.013-.773.09-1.108.258a1.349 1.349 0 01-.606-1.121v-.026a.451.451 0 00-.464-.451.451.451 0 00-.452.464v.026c0 .412.116.812.323 1.147-.503-.052-.967.064-1.328.335a.665.665 0 01-.426.155.446.446 0 00-.348.18.459.459 0 00-.077.387c.103.4.284.722.516.967-.645.129-1.303.193-1.96.193l-7.09.065h-.014l-2.269.026c-2.114.012-3.816 1.753-3.803 3.867l.026 3.636a.45.45 0 00.464.451.451.451 0 00.451-.464l-.025-3.636a2.932 2.932 0 012.243-2.862c-.09.078-.18.168-.27.245a4.183 4.183 0 00-1.2 2.669v.051c0 .09-.013.181-.013.271l.013.838c.013.851.258 1.676.71 2.398a4.558 4.558 0 001.688 1.56l.451 1.47.026 3.261a.82.82 0 00.825.813l3.558-.026a.802.802 0 00.71-.413.821.821 0 00.012-.825l-.283-.528-.026-2.772 3.765-.039c.103.207.232.4.386.58l.026 3.133a.82.82 0 00.825.812l3.262-.025a.803.803 0 00.709-.413.821.821 0 00.013-.825l-.284-.529-.026-2.294c.323-.361.593-.774.8-1.212a4.892 4.892 0 002.307-4.087 1.77 1.77 0 001.083-1.663v-.206c0-.477-.193-.903-.49-1.212.013-.039.013-.078.013-.103l-.013-1.74h.103c.258 0 .568-.052.877-.22.451-.245.76-.683.916-1.302a.44.44 0 00-.09-.361zm-2.72 1.689l.013 1.547a2.002 2.002 0 00-.4-.039l-2.578.026c-.142 0-.27.013-.4.051l-.013-1.547a1.686 1.686 0 011.676-1.701 1.684 1.684 0 011.702 1.663zm-4.796-1.238c.27-.206.632-.18.877-.116a2.493 2.493 0 00-.297.683 1.05 1.05 0 01-.631-.077.78.78 0 01-.297-.284c.129-.051.245-.116.348-.206zm-5.337 2.45a.34.34 0 01.322-.336l2.05-.013c.67 0 1.225.555 1.225 1.225 0 .684-.542 1.25-1.225 1.25l-3.649.027a.448.448 0 01-.45-.452c0-.245.193-.45.45-.45h.04a1.25 1.25 0 001.237-1.251zm-7.555 5.71a3.593 3.593 0 01-.516-1.83v-.645l3.649-.025c.245 0 .451.193.451.451a.448.448 0 01-.451.451h-.039c-.683 0-1.25.567-1.238 1.264 0 .18-.141.335-.335.335h-1.52zm5.402 6.228l.27.502-.928.013a.733.733 0 00-.103-.309l-.283-.529-.026-2.294c.142-.155.27-.323.387-.49h.593l.025 2.888c0 .077.026.154.065.219zm8.663-.078l.271.503-.98.013a.833.833 0 00-.142-.374l-.167-.258-.026-2.5c.142-.168.284-.336.4-.503.258-.013.528-.052.773-.117-.025.04-.064.065-.09.104a.447.447 0 00-.129.322l.026 2.591a.618.618 0 00.064.22zm.207-5.866v-.528a.451.451 0 00-.465-.451.451.451 0 00-.45.464v.528c0 .71-.181 1.393-.53 1.999l-.077.116a3.86 3.86 0 01-.502.631.447.447 0 00-.13.323l.026 2.823c0 .09.026.18.078.258l.167.245-1.07.013-.025-3.223a.468.468 0 00-.142-.335 1.504 1.504 0 01-.477-1.083l-.013-.903a.451.451 0 00-.464-.451.451.451 0 00-.452.464l.013.903v.116l-4.525.038c.232-.58.361-1.199.348-1.843v-.529a.451.451 0 00-.464-.451.451.451 0 00-.451.464v.529a3.838 3.838 0 01-1.109 2.745.447.447 0 00-.129.323l.026 2.591c0 .078.026.155.052.22l.27.502-1.43.013-.026-3.223a.458.458 0 00-.026-.129l-.516-1.727a.484.484 0 00-.245-.284 2.79 2.79 0 01-.76-.503l.747-.013c.684 0 1.25-.567 1.238-1.263 0-.18.142-.335.335-.335h.039a1.369 1.369 0 001.354-1.38c-.013-.748-.62-1.367-1.38-1.354l-3.571.026a3.248 3.248 0 01.877-1.624 3.3 3.3 0 012.333-.993l3.932-.039a1.4 1.4 0 00-.038.336c0 .18-.142.335-.336.335h-.038c-.748.013-1.367.619-1.354 1.38.013.747.619 1.366 1.38 1.353l3.648-.026a2.16 2.16 0 002.14-2.179c0-.502-.18-.966-.477-1.34.606-.09 1.212-.22 1.792-.4l.013 1.663c0 .039 0 .077.013.103a1.794 1.794 0 00-.477 1.225v.206c.013.98.812 1.78 1.805 1.766l2.346-.025c-.09 1.805-1.405 3.3-3.133 3.674a4.63 4.63 0 00.31-1.74zm3.919-3.712a.875.875 0 01-.864.876l-2.578.026a.875.875 0 01-.877-.864v-.206c0-.477.387-.877.864-.877l2.578-.026c.477 0 .877.387.877.864v.206zm.954-4.294a.977.977 0 01-.632.09 2.719 2.719 0 00-.31-.683c.246-.064.607-.103.877.104.104.077.233.154.349.206a1.17 1.17 0 01-.284.283z" fill="#961914"/><path d="M38.187 31.753c0 .258.206.452.464.452h.013a.451.451 0 00.45-.464.451.451 0 00-.463-.452h-.013a.451.451 0 00-.451.464zm2.372.426a.462.462 0 00.464-.464.451.451 0 00-.464-.451h-.013a.451.451 0 00-.451.464c0 .257.206.464.464.45zm-1.819 2.785a.462.462 0 00-.463.464c0 .258.206.45.464.45h.013a.451.451 0 00.451-.463.444.444 0 00-.464-.451zm1.922-.026a.462.462 0 00-.464.464.45.45 0 00.464.451h.013a.451.451 0 00.451-.464.477.477 0 00-.464-.451zM21.053 40.83a.462.462 0 00-.451.464.462.462 0 00.464.45.461.461 0 00.451-.463.462.462 0 00-.142-.323.509.509 0 00-.322-.129zm1.083-16.76c.567-.207 1.65-.387 2.836-.207 1.47.22 2.695.929 3.545 2.05a.367.367 0 01.052.361.376.376 0 01-.296.22c-.013 0-1.006.128-2.115.386l.284.748c.077.193-.026.4-.22.477a.375.375 0 01-.115.026c-.155 0-.323-.09-.374-.245l-.31-.8c-.154.04-.31.09-.464.142h-.026l.31.774c.077.193-.026.4-.22.477a.376.376 0 01-.115.026.406.406 0 01-.374-.245l-.31-.774c-.09.026-.18.064-.27.09-.555.194-.967.335-1.238.374h-.026a.391.391 0 01-.4-.335.366.366 0 01.323-.413c.18-.025.619-.167 1.07-.335.193-.064.4-.142.619-.219.129-.039.258-.09.4-.129.257-.077.54-.167.837-.245a20.26 20.26 0 011.947-.4c-1.779-1.766-4.409-1.327-5.08-1.082-.528.193-1.392.644-1.276 1.508a.366.366 0 01-.322.412.388.388 0 01-.425-.322c-.13-1.031.502-1.87 1.753-2.32z" fill="#961914"/><path d="M18.977 20.692c-.322.954-1.263 3.958-.928 6.162v.026c.129 1.07.838 2.05 2.011 2.746.787.464 1.715.774 2.72.915l.09 1.586s.04.271.052.464c.013.207-.077.297.13.297l3.055-.129c.206-.013.373-.18.36-.387a.395.395 0 00-.399-.36l-.825.025-.09-1.521a7.546 7.546 0 002.41-.76 3.834 3.834 0 001.676 1.314c.49.194 1.019.284 1.547.27a3.91 3.91 0 00.877-.128c.555-.155.941-.451 1.122-.825.167.026.348.038.515.038 1.006-.038 1.909-.696 2.18-1.701a2.298 2.298 0 00-.207-1.676 2.338 2.338 0 00-.735-.813 2.23 2.23 0 00.516-2.488 2.477 2.477 0 00-2.024-1.495c.103-.361.116-.76.013-1.147a2.357 2.357 0 00-1.045-1.457 2.404 2.404 0 00-1.805-.335 2.364 2.364 0 00-1.495.992c-.322.49-.85 1.728-1.199 2.888-1.083-.542-2.41-.825-3.777-.774a8.313 8.313 0 00-1.509.181c.103-.954.31-2.927.426-3.687.258-1.702.064-2.862-.593-3.533-.477-.502-1.2-.709-2.115-.631-2.294.193-2.54 3.597-2.552 3.738a.37.37 0 00.193.348c.129.078.27.078.4 0 .31-.18.567-.257.773-.232-.09.361-.206.877-.219 1.019-.026.412.142.825.451 1.07zm10.533 7.31c.31-.542.451-1.109.413-1.702-.065-1.044-.67-2.011-1.728-2.733.348-1.212.89-2.462 1.173-2.888a1.618 1.618 0 011.019-.683c.425-.09.864 0 1.225.232.747.477.98 1.444.528 2.166a.349.349 0 00.013.4.4.4 0 00.387.154 1.674 1.674 0 011.83 1.006c.297.735 0 1.585-.709 1.946a.358.358 0 00-.193.348.392.392 0 00.258.323c.8.296 1.238 1.108 1.031 1.908-.219.838-1.108 1.328-1.972 1.096l-.116-.04c-.658-.154-2.076-.811-3.159-1.533zm-1.29 1.366a4.99 4.99 0 00.865-.76c.98.644 2.191 1.237 2.978 1.547-.13.167-.387.283-.606.348a3.16 3.16 0 01-1.921-.103 3.063 3.063 0 01-1.315-1.032zm-4.576 2.734l-.09-1.496c.22.013.451.013.67 0 .065 0 .13 0 .194-.013l.09 1.47-.864.038zm-4.847-5.428c-.078-1.367 1.173-2.669 3.12-3.236a7.978 7.978 0 011.869-.297c1.405-.051 2.746.271 3.764.903.98.606 1.56 1.418 1.612 2.282.026.541-.129 1.057-.49 1.547-.284.4-.683.76-1.186 1.057-.902.554-2.076.877-3.313.915-.348.013-.683 0-1.019-.025-1.005-.09-1.946-.387-2.707-.838-.98-.58-1.56-1.367-1.65-2.218.013-.026 0-.052 0-.09zm.915-5.75c.542-.026.993-.464 1.057-1.057.013-.194-.025-1.109-.051-1.393a.395.395 0 00-.4-.36c-.206.012-.374.18-.36.386.025.542.05 1.186.05 1.29-.025.232-.206.425-.399.4-.013 0-.039 0-.052-.014-.167-.051-.283-.258-.257-.477.012-.103.154-.696.27-1.212v-.206s0-.013-.013-.013c0 0 0-.013-.012-.013 0 0 0-.013-.013-.013 0-.012-.013-.012-.013-.025 0 0 0-.013-.013-.013l-.013-.013s0-.013-.013-.013l-.013-.013-.013-.013-.013-.013-.025-.026c-.207-.154-.606-.348-1.174-.206.168-.864.62-2.32 1.78-2.424.683-.064 1.173.065 1.482.4.477.49.606 1.47.387 2.914-.129.876-.374 3.261-.451 4.035-.98.322-1.818.825-2.424 1.457-.064.064-.116.129-.18.193.206-1.521.67-2.978.876-3.558z" fill="#961914"/><path d="M20.176 16.54c.49-.012.529.723.039.736-.477.012-.529-.723-.039-.735zm10.314 4.642c.49-.013.529.722.039.735-.477.025-.529-.722-.039-.735zm2.553 2.952c.49-.013.528.722.038.735-.477.026-.515-.722-.038-.735zm.554 3.765c.49-.013.529.722.039.735-.477.012-.529-.723-.039-.735zm-12.222-.954c.49-.013.529.722.039.735-.49.012-.529-.723-.039-.735z" fill="#961914"/></g><defs><clipPath id="clip0_177_119"><path fill="#fff" d="M0 0h60v60H0z"/></clipPath></defs></svg>