<svg width="297" height="353" fill="none" xmlns="http://www.w3.org/2000/svg"><path d="M62.209.18C40.749 17.75 24.23 40.895 13.623 66.43 2.803 92.453-2.047 121.352.803 149.464c1.484 14.601 5.273 29.384 13.578 41.652 8.365 12.36 20.822 21.448 33.885 28.385 13.306 7.088 28.036 12.359 43.1 13.904 13.73 1.424 28.43-.606 39.826-8.876 17.64-12.814 23.914-43.773 3.91-57.465-5.546-3.787-12.154-5.665-18.761-6.483-7.153-.878-14.639-.636-21.64 1.151-13.458 3.424-23.278 13.208-29.037 25.567-12.063 25.81-8.608 57.496 2.516 82.972 11.578 26.536 32.521 47.862 57.617 62.009 24.005 13.571 51.526 20.841 79.138 20.69 26.672-.152 53.556-7.331 75.743-22.356a119.864 119.864 0 0015.154-12.208c.697-.666-.364-1.757-1.061-1.06-18.973 18.024-43.615 28.869-69.408 32.625-26.005 3.786-52.829.454-77.319-8.906-25.793-9.845-49.434-26.415-65.65-48.953-16.579-22.992-25.308-52.225-21.822-80.548 1.606-13.087 5.97-26.567 14.912-36.533 9.85-10.966 24.308-14.359 38.584-13.177 12.82 1.06 26.096 6.785 30.46 19.841 3.547 10.603.879 22.75-5.122 31.929-15.912 24.416-50.313 20.629-73.924 11.905-14.094-5.211-27.945-12.753-39.069-22.962-10.88-9.997-17.791-22.81-21.307-37.078-3.395-13.692-4.031-28.081-3.152-42.107a174.299 174.299 0 017.274-40.016c7.82-25.628 21.429-49.62 39.978-69.007A157.04 157.04 0 0163.39 1.24c.636-.606-.425-1.666-1.182-1.06z" fill="#fff"/></svg>