<svg width="60" height="60" viewBox="0 0 60 60" fill="none" xmlns="http://www.w3.org/2000/svg">
<g clip-path="url(#clip0_177_119)">
<path d="M29.9996 59.9867C46.561 59.9867 59.9867 46.561 59.9867 29.9996C59.9867 13.4381 46.561 0.0124512 29.9996 0.0124512C13.4381 0.0124512 0.0124512 13.4381 0.0124512 29.9996C0.0124512 46.561 13.4381 59.9867 29.9996 59.9867Z" fill="#EAD1D0"/>
<path d="M30.0001 50.4728C41.3068 50.4728 50.4728 41.3068 50.4728 30.0001C50.4728 18.6933 41.3068 9.52734 30.0001 9.52734C18.6933 9.52734 9.52734 18.6933 9.52734 30.0001C9.52734 41.3068 18.6933 50.4728 30.0001 50.4728Z" stroke="#961914" stroke-width="0.5" stroke-miterlimit="10"/>
<path d="M35.4534 3.40355L33.2876 3.10703L32.7848 6.79418L32.1788 6.70393L32.759 2.5011L35.5179 2.88786L35.4534 3.40355Z" fill="#961914"/>
<path d="M35.4921 7.07778C35.2858 6.8715 35.144 6.63944 35.0667 6.35582C34.9893 6.07219 35.0022 5.78856 35.0796 5.47915C35.1698 5.16974 35.3116 4.92479 35.5179 4.71852C35.7242 4.51224 35.9691 4.38332 36.2528 4.31886C36.5364 4.2544 36.8329 4.26729 37.1423 4.34464C37.4517 4.43489 37.7096 4.5767 37.9158 4.77009C38.1221 4.97636 38.2639 5.20842 38.3284 5.49205C38.4057 5.77567 38.3929 6.0593 38.3155 6.36871C38.2381 6.67812 38.0834 6.92307 37.8901 7.12935C37.6967 7.33562 37.4388 7.46454 37.1552 7.54189C36.8716 7.60635 36.5751 7.60635 36.2656 7.51611C35.9562 7.42586 35.6984 7.28405 35.4921 7.07778ZM36.9747 7.02621C37.1552 6.97464 37.3228 6.8844 37.4517 6.74258C37.5935 6.60077 37.6838 6.42028 37.7482 6.214C37.8127 5.99484 37.8127 5.80146 37.774 5.60807C37.7225 5.41469 37.6451 5.25999 37.5033 5.11817C37.3615 4.97636 37.1939 4.89901 37.0005 4.83455C36.8071 4.78298 36.6137 4.77009 36.4332 4.82165C36.2528 4.87322 36.0852 4.96347 35.9562 5.10528C35.8273 5.24709 35.7242 5.42758 35.6597 5.63386C35.5953 5.85302 35.5953 6.04641 35.6339 6.23979C35.6726 6.43317 35.7629 6.60077 35.9047 6.72969C36.0336 6.85861 36.2012 6.96175 36.3946 7.01332C36.6008 7.07778 36.7813 7.07778 36.9747 7.02621Z" fill="#961914"/>
<path d="M41.835 8.74089C41.719 8.99873 41.5256 9.15344 41.2678 9.19212C41.0099 9.24368 40.6876 9.17922 40.3137 8.99873L38.9214 8.34123L40.3008 5.42761L41.6545 6.07222C42.0026 6.23982 42.2347 6.42031 42.3636 6.65237C42.4925 6.88442 42.5054 7.10359 42.3894 7.33565C42.312 7.49035 42.2089 7.60638 42.08 7.67084C41.9381 7.7482 41.7834 7.77398 41.6158 7.76109C41.9381 8.03182 42.0155 8.36702 41.835 8.74089ZM40.997 8.70221C41.1388 8.68932 41.242 8.59908 41.3193 8.45726C41.3838 8.30256 41.3967 8.17364 41.3322 8.04472C41.2678 7.91579 41.1259 7.81266 40.9068 7.70952L40.0301 7.29697L39.6176 8.17364L40.4684 8.57329C40.6747 8.67643 40.8552 8.71511 40.997 8.70221ZM40.2106 6.9231L40.997 7.29697C41.2033 7.38722 41.3709 7.42589 41.5127 7.40011C41.6545 7.37432 41.7577 7.29697 41.8221 7.15516C41.951 6.87153 41.8092 6.63947 41.4096 6.44609L40.6103 6.07222L40.2106 6.9231Z" fill="#961914"/>
<path d="M46.3989 8.98587L44.5553 11.6159L44.1298 11.3193L44.71 10.4814L43.9493 9.93989L43.8978 9.90121L42.7375 10.3267L42.2218 9.96567L43.4981 9.51445C43.3434 9.32107 43.2532 9.11479 43.2532 8.89562C43.2403 8.68935 43.3047 8.47018 43.4594 8.2768C43.6657 7.98028 43.9365 7.81269 44.2459 7.79979C44.5682 7.7869 44.9034 7.90293 45.2643 8.16077L46.3989 8.98587ZM43.8075 9.15347C43.8591 9.32107 44.0009 9.47577 44.2201 9.63048L44.9549 10.1462L45.6769 9.11479L44.9678 8.612C44.5166 8.28969 44.1556 8.30259 43.9107 8.65067C43.7946 8.81827 43.756 8.98587 43.8075 9.15347Z" fill="#961914"/>
<path d="M48.294 14.465L47.4045 15.3546L47.0177 14.9678L47.5463 14.4392L45.6511 12.5312L45.1225 13.0598L44.7358 12.673L45.6253 11.7835L45.7414 11.8995C45.8961 12.0413 46.1023 12.0284 46.3473 11.8995C46.6051 11.7577 46.9145 11.5127 47.3013 11.1775L48.1006 10.4427L49.854 12.2089L47.933 14.1169L48.294 14.465ZM46.863 12.2218C46.6438 12.3765 46.4375 12.441 46.2571 12.4281L47.5205 13.7044L49.0804 12.1573L48.1006 11.1646L47.6365 11.5772C47.3529 11.8608 47.095 12.0671 46.863 12.2218Z" fill="#961914"/>
<path d="M51.1947 13.7946L51.517 14.2716L49.5832 15.5866L52.6258 15.9089L52.9223 16.3473L50.2536 18.1522L49.9313 17.6751L51.8651 16.3602L48.8226 16.0507L48.5261 15.6124L51.1947 13.7946Z" fill="#961914"/>
<path d="M53.8763 18.0748L54.1083 18.6162L52.8578 19.1577L53.5797 20.8337L54.8303 20.2922L55.0623 20.8337L52.11 22.11L51.878 21.5685L53.1156 21.04L52.3808 19.364L51.1431 19.8926L50.9111 19.364L53.8763 18.0748Z" fill="#961914"/>
<path d="M55.8617 24.8819C55.707 25.1655 55.4104 25.346 54.9979 25.4491L53.1156 25.9003L52.9867 25.3589L53.3993 25.2557C53.2317 25.1913 53.0899 25.0881 52.9738 24.9334C52.8578 24.7787 52.7676 24.5724 52.716 24.3404C52.6386 23.9923 52.6515 23.6958 52.7676 23.4379C52.8836 23.193 53.0899 23.0254 53.3606 22.9609C53.6313 22.8965 53.8763 22.948 54.0954 23.1027C54.3146 23.2574 54.4693 23.5669 54.5725 24.0052L54.7916 24.9076L54.9077 24.8819C55.1526 24.8303 55.3202 24.7143 55.4233 24.5338C55.5265 24.3533 55.5394 24.1341 55.4749 23.8634C55.4362 23.6829 55.3589 23.5024 55.2557 23.3477C55.1526 23.1801 55.0366 23.0512 54.9077 22.9609L55.2815 22.6257C55.4491 22.7547 55.5909 22.9223 55.7199 23.1285C55.8488 23.3348 55.939 23.5669 55.9906 23.8247C56.0551 24.2372 56.0293 24.5982 55.8617 24.8819ZM53.438 24.8561C53.5669 24.985 53.7345 25.0752 53.9279 25.101L54.3662 24.9979L54.1599 24.1212C54.0439 23.6442 53.8247 23.4379 53.5024 23.5153C53.3477 23.554 53.2317 23.6442 53.1801 23.786C53.1156 23.9278 53.1157 24.1083 53.1672 24.3275C53.2188 24.5467 53.309 24.7272 53.438 24.8561Z" fill="#961914"/>
<path d="M58.5561 30.3868L58.569 30.9153L52.832 28.9815V28.4529L58.5561 30.3868Z" fill="#961914"/>
<path d="M57.3572 34.6025L57.2153 35.1827L54.031 34.4221L56.6352 37.6322L56.5063 38.1737L52.3808 37.1939L52.5226 36.6137L55.707 37.3744L53.1156 34.1642L53.2446 33.6227L57.3572 34.6025Z" fill="#961914"/>
<path d="M54.7787 39.914L54.5338 40.4426L53.2961 39.8625L52.5226 41.5256L53.7603 42.1057L53.5153 42.6343L50.6017 41.2806L50.8466 40.752L52.0714 41.3193L52.8449 39.6562L51.6202 39.0889L51.8651 38.5604L54.7787 39.914Z" fill="#961914"/>
<path d="M48.41 45.4061L47.3915 44.6713L47.701 44.233L48.3069 44.6713L49.8797 42.4925L49.2738 42.0542L49.5961 41.603L50.6146 42.3378L50.5114 42.4796C50.3954 42.6601 50.4341 42.8535 50.6146 43.0727C50.7951 43.2918 51.0916 43.5755 51.4783 43.8849L52.3292 44.5553L50.8724 46.5793L48.6679 45.0065L48.41 45.4061ZM50.3825 43.627C50.202 43.4336 50.0989 43.2403 50.0731 43.0727L49.0288 44.5424L50.808 45.8187L51.6202 44.6842L51.1303 44.2974C50.8208 44.0525 50.5759 43.8204 50.3825 43.627Z" fill="#961914"/>
<path d="M46.2055 48.8741L48.0748 47.0563C47.8557 46.8758 47.5978 46.7985 47.3271 46.8243C47.0564 46.8501 46.8114 46.9661 46.5794 47.1852C46.3086 47.456 46.1668 47.7654 46.1797 48.1135L45.6898 48.0619C45.6769 47.8427 45.7156 47.6236 45.8058 47.4044C45.8961 47.1852 46.0379 46.9919 46.2313 46.8114C46.4762 46.5793 46.747 46.4117 47.0306 46.3344C47.3142 46.257 47.5978 46.2441 47.8815 46.3344C48.1522 46.4117 48.41 46.5664 48.6292 46.7985C48.8484 47.0176 48.9902 47.2755 49.0675 47.5462C49.1449 47.8299 49.1449 48.1006 49.0675 48.3713C48.9902 48.6421 48.8355 48.887 48.6163 49.0933C48.3971 49.3125 48.1522 49.4414 47.8815 49.5187C47.6107 49.5832 47.34 49.5703 47.0693 49.4929C46.7985 49.4156 46.5536 49.248 46.3215 49.0159C46.2828 48.9773 46.2442 48.9257 46.2055 48.8741ZM48.6034 48.0619C48.6163 47.8041 48.539 47.572 48.3714 47.3528L46.8888 48.7839C47.095 48.9515 47.3271 49.0417 47.5849 49.0288C47.8428 49.0288 48.0619 48.9257 48.2682 48.7323C48.4745 48.5389 48.5776 48.3198 48.6034 48.0619Z" fill="#961914"/>
<path d="M46.0894 51.2591L45.5995 51.5814L44.2974 49.6347L43.9493 52.6773L43.511 52.9738L41.7319 50.2922L42.2218 49.9699L43.5239 51.9166L43.8591 48.8741L44.2974 48.5776L46.0894 51.2591ZM45.7671 52.2389C45.9863 52.2647 46.1668 52.3936 46.3215 52.6128L45.9992 52.832C45.9089 52.7159 45.8058 52.6386 45.6769 52.6128C45.5479 52.587 45.4061 52.6257 45.2643 52.7159C45.1225 52.8062 45.0452 52.9222 45.0065 53.0511C44.9678 53.1801 44.9936 53.309 45.0709 53.4379L44.7357 53.6571C44.5939 53.425 44.5424 53.2059 44.6068 52.9996C44.6713 52.7933 44.826 52.5999 45.0709 52.4323C45.3159 52.2776 45.5608 52.2132 45.7671 52.2389Z" fill="#961914"/>
<path d="M39.9141 52.6773L40.52 52.4065L39.9786 51.156L40.5071 50.924L41.7835 53.8763L41.242 54.1083L40.7005 52.8578L40.0817 53.1285L39.6692 54.7916L39.1019 55.0365L39.6047 53.1285L37.7482 52.1229L38.3799 51.8522L39.9141 52.6773Z" fill="#961914"/>
<path d="M35.5824 55.7198C35.2987 55.5651 35.1054 55.2815 35.0022 54.8561L34.5252 52.9738L35.0667 52.832L35.1698 53.2445C35.2214 53.077 35.3374 52.9351 35.4921 52.8062C35.6468 52.6902 35.8402 52.5999 36.0852 52.5355C36.4332 52.4452 36.7298 52.4581 36.9876 52.5742C37.2454 52.6902 37.4002 52.8836 37.4775 53.1543C37.542 53.425 37.5033 53.67 37.3486 53.8892C37.1939 54.1083 36.8974 54.2759 36.459 54.3791L35.5695 54.6111L35.5953 54.7271C35.6597 54.9721 35.7757 55.1397 35.9433 55.2299C36.1109 55.3202 36.343 55.3331 36.6137 55.2686C36.7942 55.217 36.9747 55.1526 37.1294 55.0366C37.2841 54.9205 37.413 54.8174 37.5162 54.6756L37.8643 55.0366C37.7354 55.2042 37.5678 55.3589 37.3615 55.4749C37.1552 55.6038 36.9231 55.6941 36.6782 55.7585C36.227 55.9003 35.866 55.8746 35.5824 55.7198ZM35.5695 53.2961C35.4405 53.425 35.3632 53.5926 35.3374 53.786L35.4405 54.2244L36.3043 54.0052C36.7813 53.8892 36.9876 53.67 36.8974 53.3477C36.8587 53.193 36.7684 53.077 36.6266 53.0254C36.4848 52.9609 36.3043 52.9609 36.0852 53.0254C35.8789 53.0641 35.6984 53.1543 35.5695 53.2961Z" fill="#961914"/>
<path d="M23.8634 56.416L26.0164 56.7899L26.6352 53.1285L27.2282 53.2317L26.5063 57.4216L23.7603 56.9575L23.8634 56.416Z" fill="#961914"/>
<path d="M23.9279 52.7288C24.1341 52.9351 24.2631 53.1801 24.3404 53.4637C24.4049 53.7473 24.392 54.031 24.3017 54.3404C24.2115 54.6498 24.0568 54.8947 23.8505 55.0881C23.6442 55.2815 23.3993 55.4104 23.1157 55.4749C22.832 55.5393 22.5355 55.5264 22.2261 55.4233C21.9167 55.3331 21.6588 55.1912 21.4655 54.985C21.2592 54.7787 21.1303 54.5337 21.0658 54.263C21.0013 53.9794 21.0142 53.6958 21.1045 53.3863C21.1947 53.0898 21.3365 52.832 21.5557 52.6386C21.7749 52.4452 22.0069 52.3163 22.2906 52.2518C22.5742 52.1874 22.8707 52.2003 23.1801 52.2905C23.4766 52.3679 23.7216 52.5226 23.9279 52.7288ZM22.4453 52.7417C22.2648 52.7933 22.0972 52.8835 21.9683 53.0125C21.8264 53.1543 21.7233 53.3219 21.6588 53.541C21.5944 53.7602 21.5815 53.9536 21.6202 54.147C21.6588 54.3404 21.7491 54.508 21.878 54.6369C22.0069 54.7787 22.1745 54.8689 22.3679 54.9334C22.5613 54.9979 22.7547 54.9979 22.9352 54.9592C23.1157 54.9205 23.2832 54.8303 23.4251 54.6884C23.5669 54.5466 23.67 54.379 23.7345 54.1599C23.7989 53.9407 23.8118 53.7473 23.7603 53.5539C23.7216 53.3606 23.6313 53.193 23.5024 53.064C23.3735 52.9222 23.2059 52.832 23.0125 52.7675C22.8191 52.7031 22.6257 52.7031 22.4453 52.7417Z" fill="#961914"/>
<path d="M17.6494 50.8853C17.7783 50.6274 17.9717 50.4856 18.2295 50.4469C18.4874 50.4082 18.8097 50.4856 19.1835 50.679L20.563 51.3881L19.1062 54.2501L17.7783 53.5668C17.4431 53.3992 17.2111 53.193 17.0821 52.9738C16.9532 52.7546 16.9532 52.5226 17.0692 52.2776C17.1466 52.1229 17.2497 52.0198 17.3915 51.9553C17.5334 51.8908 17.6881 51.8651 17.8557 51.878C17.5334 51.5814 17.456 51.2591 17.6494 50.8853ZM19.2222 52.7546L18.4487 52.355C18.2553 52.2518 18.0877 52.2131 17.9459 52.2389C17.8041 52.2518 17.701 52.3421 17.6365 52.471C17.4947 52.7417 17.6236 52.9867 18.0361 53.1929L18.8097 53.5926L19.2222 52.7546ZM18.4745 50.9497C18.3327 50.9626 18.2166 51.04 18.1522 51.1818C18.0748 51.3365 18.0748 51.4654 18.1264 51.5814C18.1909 51.7104 18.3327 51.8264 18.5389 51.9295L19.4027 52.3679L19.841 51.5041L19.0031 51.0786C18.7968 50.9884 18.6163 50.9368 18.4745 50.9497Z" fill="#961914"/>
<path d="M13.0856 50.4856L15.0194 47.9201L15.4319 48.2295L14.826 49.0417L15.5738 49.609L15.6253 49.6477L16.7985 49.2609L17.3013 49.6348L16.0121 50.0473C16.1668 50.2536 16.2441 50.4599 16.2441 50.6661C16.2441 50.8724 16.1668 51.0787 16.025 51.285C15.8058 51.5815 15.5351 51.7233 15.2257 51.7362C14.9034 51.7362 14.5682 51.6073 14.2201 51.3494L13.0856 50.4856ZM15.6769 50.4083C15.6253 50.2407 15.4964 50.086 15.2772 49.9184L14.5682 49.3769L13.8075 50.3954L14.5037 50.9111C14.9549 51.2463 15.303 51.2463 15.5609 50.9111C15.6769 50.7306 15.7156 50.563 15.6769 50.4083Z" fill="#961914"/>
<path d="M11.3967 44.9807L12.3121 44.1169L12.6859 44.5166L12.1445 45.0194L13.9751 46.979L14.5166 46.4762L14.8905 46.8759L13.9751 47.7267L13.8591 47.5978C13.7044 47.456 13.511 47.456 13.2532 47.5849C12.9953 47.7139 12.673 47.9459 12.2863 48.2811L11.4612 48.9902L9.74652 47.1853L11.719 45.3417L11.3967 44.9807ZM12.7504 47.2755C12.9824 47.1337 13.1758 47.0692 13.3563 47.0821L12.1316 45.7671L10.52 47.2626L11.4741 48.2811L11.9511 47.8815C12.2605 47.6236 12.5183 47.4173 12.7504 47.2755Z" fill="#961914"/>
<path d="M8.45732 45.5351L8.14791 45.0452L10.1204 43.7946L7.09076 43.3821L6.80713 42.9308L9.52737 41.2162L9.83678 41.7061L7.85139 42.9566L10.881 43.3692L11.1647 43.8204L8.45732 45.5351Z" fill="#961914"/>
<path d="M5.90467 41.1646L5.6855 40.6232L6.94893 40.1204L6.29143 38.4186L5.028 38.9214L4.80884 38.3799L7.79981 37.1938L8.01898 37.7353L6.76844 38.2252L7.43883 39.927L8.68937 39.4371L8.90854 39.9785L5.90467 41.1646Z" fill="#961914"/>
<path d="M4.13844 34.3447C4.30604 34.0739 4.60256 33.8935 5.028 33.8032L6.92315 33.4164L7.03917 33.9579L6.61373 34.0353C6.78133 34.0997 6.92315 34.2158 7.03917 34.3705C7.1552 34.5252 7.23256 34.7314 7.28413 34.9764C7.36148 35.3245 7.33569 35.6339 7.20677 35.8788C7.07785 36.1238 6.87158 36.2785 6.60084 36.3301C6.31722 36.3816 6.07227 36.3301 5.86599 36.1625C5.65972 35.9949 5.50501 35.6855 5.41477 35.2471L5.23428 34.3447L5.11825 34.3705C4.8733 34.422 4.69281 34.5252 4.60256 34.7057C4.49942 34.8733 4.47364 35.0924 4.5381 35.376C4.57678 35.5565 4.64124 35.737 4.74437 35.9046C4.84751 36.0722 4.95065 36.2011 5.07957 36.3043L4.7057 36.6266C4.5381 36.4848 4.39629 36.3172 4.28026 36.1109C4.16423 35.9046 4.07398 35.6726 4.02242 35.4147C3.93217 34.9764 3.97085 34.6154 4.13844 34.3447ZM6.56217 34.4349C6.43324 34.2931 6.26565 34.2158 6.07226 34.1771L5.63393 34.2673L5.81442 35.144C5.91756 35.6339 6.12383 35.8402 6.44614 35.7628C6.60084 35.7241 6.71687 35.6468 6.78133 35.505C6.84579 35.3632 6.85869 35.1827 6.80712 34.9635C6.78133 34.7572 6.69109 34.5767 6.56217 34.4349Z" fill="#961914"/>
<path d="M1.61157 28.7366L1.62446 28.208L7.3099 30.3094L7.297 30.838L1.61157 28.7366Z" fill="#961914"/>
<path d="M2.95233 24.5337L3.10704 23.9536L6.26561 24.8174L3.76454 21.5299L3.90635 20.9884L8.00605 22.11L7.85134 22.6773L4.69277 21.8135L7.18095 25.101L7.03914 25.6425L2.95233 24.5337Z" fill="#961914"/>
<path d="M5.68549 19.3253L5.94333 18.8097L7.16808 19.4285L7.99318 17.7912L6.76843 17.1724L7.03916 16.6567L9.91411 18.1135L9.65626 18.6292L8.4573 18.0232L7.6322 19.6605L8.83117 20.2665L8.57332 20.7822L5.68549 19.3253Z" fill="#961914"/>
<path d="M12.2476 14.0138L13.2403 14.7744L12.9051 15.2128L12.312 14.7615L10.6747 16.8887L11.2678 17.34L10.9326 17.7783L9.93988 17.0177L10.043 16.8887C10.159 16.7211 10.1333 16.5149 9.95277 16.2828C9.77228 16.0508 9.50155 15.7671 9.11478 15.4319L8.27679 14.7358L9.79807 12.7504L11.9382 14.4006L12.2476 14.0138ZM10.2106 15.7285C10.3911 15.9347 10.4813 16.1152 10.4942 16.2957L11.5901 14.8647L9.84963 13.5239L8.99875 14.6326L9.47576 15.0323C9.78517 15.2901 10.0301 15.5222 10.2106 15.7285Z" fill="#961914"/>
<path d="M14.5424 10.6361L12.6086 12.3894C12.8278 12.5699 13.0727 12.6601 13.3434 12.6472C13.6142 12.6343 13.872 12.5183 14.1041 12.312C14.3877 12.0542 14.5295 11.7448 14.5295 11.3967L15.0194 11.4612C15.0194 11.6803 14.9807 11.8995 14.8776 12.1187C14.7745 12.3249 14.6327 12.5312 14.4264 12.7117C14.1685 12.9438 13.9107 13.0856 13.6142 13.1629C13.3305 13.2403 13.0469 13.2274 12.7633 13.1371C12.5054 13.0211 12.2605 12.8664 12.0542 12.6343C11.848 12.4023 11.7061 12.1444 11.6417 11.8737C11.5772 11.5901 11.5901 11.3193 11.6675 11.0486C11.7577 10.7779 11.9124 10.5458 12.1445 10.3395C12.3765 10.1333 12.6215 9.99146 12.8922 9.93989C13.1629 9.88832 13.4337 9.90121 13.7044 9.99146C13.9752 10.0817 14.2201 10.2493 14.4393 10.4943C14.4651 10.52 14.5037 10.5716 14.5424 10.6361ZM12.1316 11.358C12.1058 11.6159 12.1703 11.8479 12.3379 12.0671L13.8591 10.6747C13.6528 10.4943 13.4208 10.404 13.1629 10.404C12.9051 10.404 12.673 10.4943 12.4668 10.6876C12.2734 10.881 12.1574 11.1002 12.1316 11.358Z" fill="#961914"/>
<path d="M15.0839 7.28409C14.8647 7.24541 14.6842 7.11649 14.5424 6.88443L14.8776 6.67816C14.955 6.80708 15.071 6.88443 15.1999 6.89732C15.3288 6.92311 15.4707 6.89732 15.6125 6.80708C15.7543 6.71683 15.8445 6.6137 15.8832 6.48478C15.9219 6.35585 15.909 6.22693 15.8316 6.09801L16.1797 5.87885C16.3215 6.1109 16.3602 6.33007 16.2829 6.54924C16.2184 6.75551 16.0508 6.94889 15.8058 7.1036C15.5351 7.2583 15.3031 7.32276 15.0839 7.28409ZM14.7358 8.251L15.2257 7.94159L16.4633 9.92698L16.9017 6.89732L17.3529 6.6137L19.0547 9.34683L18.5648 9.65624L17.3271 7.67085L16.8759 10.7005L16.4247 10.9841L14.7358 8.251Z" fill="#961914"/>
<path d="M20.9498 7.02625L20.331 7.2712L20.8337 8.53463L20.2923 8.7538L19.1062 5.76282L19.6477 5.54366L20.1505 6.80709L20.7822 6.54924L21.2463 4.89905L21.8264 4.66699L21.2721 6.56214L23.1028 7.63218L22.4582 7.89003L20.9498 7.02625Z" fill="#961914"/>
<path d="M25.3718 4.12551C25.6425 4.29311 25.8359 4.57673 25.9261 5.00217L26.3387 6.89732L25.7972 7.01335L25.707 6.6008C25.6425 6.7684 25.5394 6.91021 25.3718 7.02624C25.2171 7.14227 25.0108 7.23251 24.7787 7.28408C24.4306 7.36143 24.1212 7.33565 23.8763 7.21962C23.6313 7.0907 23.4766 6.89732 23.4122 6.61369C23.3477 6.34296 23.3993 6.098 23.5669 5.87884C23.7345 5.67256 24.031 5.51786 24.4693 5.41472L25.3718 5.22134L25.346 5.10531C25.2944 4.86036 25.1784 4.69276 25.0108 4.58962C24.8432 4.48649 24.6111 4.4736 24.3404 4.53806C24.1599 4.57673 23.9794 4.65409 23.8118 4.74433C23.6442 4.84747 23.5153 4.9635 23.4122 5.09242L23.077 4.71855C23.2059 4.55095 23.3864 4.40913 23.5927 4.29311C23.7989 4.17708 24.031 4.08683 24.2888 4.03526C24.7401 3.93213 25.101 3.95791 25.3718 4.12551ZM25.3202 6.54923C25.4491 6.42031 25.5394 6.25271 25.578 6.05933L25.4749 5.621L24.5982 5.81438C24.1083 5.91752 23.915 6.13668 23.9794 6.45899C24.0181 6.61369 24.0954 6.72972 24.2502 6.79418C24.392 6.85864 24.5725 6.87153 24.7916 6.81996C25.0108 6.7684 25.1784 6.67815 25.3202 6.54923Z" fill="#961914"/>
<path d="M44.1943 30.2579C44.1041 30.1418 43.9751 30.0774 43.8333 30.0774C43.6786 30.0774 43.5239 30.0258 43.4079 29.9227C43.034 29.6519 42.5828 29.5359 42.0671 29.6004C42.2605 29.2523 42.3765 28.8526 42.3765 28.4401V28.4143C42.3765 28.1565 42.1702 27.9631 41.9124 27.9631C41.6546 27.9631 41.4612 28.1693 41.4612 28.4272V28.453C41.4612 28.9042 41.242 29.3296 40.8681 29.5875C40.5329 29.4328 40.1591 29.3425 39.7594 29.3554C39.3598 29.3683 38.9859 29.4457 38.6507 29.6133C38.2768 29.3683 38.0448 28.9429 38.0448 28.4917V28.4659C38.0448 28.208 37.8385 28.0146 37.5806 28.0146C37.3228 28.0146 37.1294 28.2209 37.1294 28.4788V28.5045C37.1294 28.9171 37.2454 29.3167 37.4517 29.6519C36.9489 29.6004 36.4848 29.7164 36.1238 29.9871C35.9949 30.0903 35.8531 30.1418 35.6984 30.1418C35.5566 30.1418 35.4277 30.2192 35.3503 30.3223C35.273 30.4255 35.2343 30.5802 35.273 30.7091C35.3761 31.1088 35.5566 31.4311 35.7886 31.676C35.144 31.8049 34.4865 31.8694 33.829 31.8694L26.7384 31.9339H26.7255L24.4564 31.9596C22.3421 31.9725 20.6404 33.713 20.6533 35.8273L20.6791 39.4629C20.6791 39.7207 20.8853 39.9141 21.1432 39.9141C21.401 39.9141 21.5944 39.7078 21.5944 39.45L21.5686 35.8144C21.5557 34.4349 22.5226 33.2617 23.8118 32.9523C23.7216 33.0297 23.6314 33.1199 23.5411 33.1973C22.832 33.9192 22.4066 34.8604 22.3421 35.866C22.3421 35.8788 22.3421 35.9046 22.3421 35.9175C22.3421 36.0078 22.3292 36.098 22.3292 36.1883L22.3421 37.0262C22.355 37.8771 22.6 38.7022 23.0512 39.4242C23.4766 40.0817 24.0568 40.6232 24.7401 40.9841L25.1913 42.4538L25.2171 45.7155C25.2171 46.1668 25.591 46.5277 26.0422 46.5277L29.6004 46.502C29.8969 46.502 30.1677 46.3473 30.3095 46.0894C30.4642 45.8316 30.4642 45.5222 30.3224 45.2643L30.0387 44.7357L30.013 41.9639L33.7775 41.9253C33.8806 42.1315 34.0095 42.3249 34.1642 42.5054L34.19 45.6382C34.19 46.0894 34.5639 46.4504 35.0151 46.4504L38.2768 46.4246C38.5733 46.4246 38.8441 46.2699 38.9859 46.0121C39.1406 45.7542 39.1406 45.4448 38.9988 45.187L38.7152 44.6584L38.6894 42.3636C39.0117 42.0026 39.2824 41.5901 39.4887 41.1517C40.8552 40.3008 41.7706 38.7925 41.7964 37.0649C42.441 36.7942 42.8922 36.1496 42.8793 35.4018V35.1956C42.8793 34.7186 42.6859 34.2931 42.3894 33.9837C42.4023 33.945 42.4023 33.9063 42.4023 33.8806L42.3894 32.1401C42.4152 32.1401 42.4539 32.1401 42.4925 32.1401C42.7504 32.1401 43.0598 32.0886 43.3692 31.921C43.8204 31.676 44.1298 31.2377 44.2846 30.6189C44.3103 30.5157 44.2846 30.3739 44.1943 30.2579ZM41.4741 31.9467L41.487 33.4938C41.358 33.468 41.2291 33.4551 41.0873 33.4551L38.5089 33.4809C38.3671 33.4809 38.2381 33.4938 38.1092 33.5325L38.0963 31.9854C38.0834 31.0572 38.8441 30.2837 39.7723 30.2837C40.7005 30.2708 41.4612 31.0185 41.4741 31.9467ZM36.6782 30.7091C36.9489 30.5028 37.3099 30.5286 37.5549 30.5931C37.4259 30.7993 37.3228 31.0314 37.2583 31.2764C37.1165 31.3021 36.8587 31.315 36.6266 31.199C36.5106 31.1345 36.4075 31.0443 36.3301 30.9154C36.459 30.8638 36.5751 30.7993 36.6782 30.7091ZM31.3408 33.1586C31.3408 32.9781 31.4827 32.8363 31.6632 32.8234L33.713 32.8105C34.3834 32.8105 34.9378 33.3649 34.9378 34.0353C34.9378 34.7186 34.3963 35.2858 33.713 35.2858L30.0645 35.3116C29.8196 35.3116 29.6133 35.1182 29.6133 34.8604C29.6133 34.6154 29.8067 34.4091 30.0645 34.4091H30.1032C30.7865 34.4091 31.3408 33.8419 31.3408 33.1586ZM23.7861 38.8698C23.4638 38.3283 23.2704 37.6966 23.2704 37.0391V36.3945L26.9188 36.3687C27.1638 36.3687 27.3701 36.5621 27.3701 36.82C27.3701 37.0649 27.1767 37.2712 26.9188 37.2712H26.8802C26.1969 37.2712 25.6296 37.8384 25.6425 38.5346C25.6425 38.7151 25.5007 38.8698 25.3073 38.8698H23.7861ZM29.1879 45.0967L29.4586 45.5995L28.5304 45.6124C28.5175 45.5093 28.4917 45.4061 28.4272 45.303L28.1436 44.7744L28.1178 42.4796C28.2596 42.3249 28.3886 42.1573 28.5046 41.9897H29.0976L29.1234 44.8776C29.1234 44.9549 29.1492 45.0323 29.1879 45.0967ZM37.8514 45.0194L38.1221 45.5222L37.1423 45.5351C37.1294 45.4061 37.0779 45.2772 37.0005 45.1612L36.8329 44.9033L36.8071 42.4023C36.9489 42.2347 37.0907 42.0671 37.2068 41.8995C37.4646 41.8866 37.7353 41.8479 37.9803 41.7834C37.9545 41.8221 37.9158 41.8479 37.8901 41.8866C37.7998 41.9768 37.7611 42.0929 37.7611 42.2089L37.7869 44.8002C37.7998 44.8776 37.8127 44.9549 37.8514 45.0194ZM38.0577 39.1534V38.6249C38.0577 38.367 37.8514 38.1736 37.5935 38.1736C37.3357 38.1736 37.1423 38.3799 37.1423 38.6378V39.1663C37.1423 39.8754 36.9618 40.5587 36.6137 41.1646C36.5879 41.2033 36.5622 41.242 36.5364 41.2806C36.3946 41.4998 36.227 41.719 36.0336 41.9124C35.9433 42.0026 35.9047 42.1186 35.9047 42.2347L35.9305 45.058C35.9305 45.1483 35.9562 45.2385 36.0078 45.3159L36.1754 45.5608L35.1054 45.5737L35.0796 42.3507C35.0796 42.2218 35.028 42.1057 34.9378 42.0155C34.6412 41.7319 34.4607 41.3451 34.4607 40.9326L34.4479 40.0301C34.4479 39.7723 34.2416 39.5789 33.9837 39.5789C33.7259 39.5789 33.5325 39.7852 33.5325 40.043L33.5454 40.9455C33.5454 40.9841 33.5454 41.0228 33.5454 41.0615L29.0203 41.1002C29.2523 40.52 29.3812 39.9012 29.3684 39.2566V38.728C29.3684 38.4702 29.1621 38.2768 28.9042 38.2768C28.6464 38.2768 28.453 38.4831 28.453 38.7409V39.2695C28.4659 40.3008 28.0662 41.2806 27.3443 42.0155C27.254 42.1057 27.2154 42.2218 27.2154 42.3378L27.2411 44.9291C27.2411 45.0065 27.2669 45.0838 27.2927 45.1483L27.5635 45.6511L26.1324 45.664L26.1066 42.4409C26.1066 42.4023 26.0938 42.3507 26.0809 42.312L25.5652 40.5845C25.5265 40.4684 25.4363 40.3524 25.3202 40.3008C25.0366 40.1719 24.7788 40.0043 24.5596 39.7981L25.3073 39.7852C25.9906 39.7852 26.5579 39.2179 26.545 38.5217C26.545 38.3412 26.6868 38.1865 26.8802 38.1865H26.9188C27.6666 38.1736 28.2854 37.5677 28.2725 36.8071C28.2596 36.0593 27.6537 35.4405 26.8931 35.4534L23.3219 35.4792C23.4509 34.8733 23.7474 34.306 24.1986 33.8548C24.8174 33.2231 25.6425 32.875 26.5321 32.8621L30.4642 32.8234C30.4384 32.9265 30.4255 33.0426 30.4255 33.1586C30.4255 33.3391 30.2837 33.4938 30.0903 33.4938H30.0516C29.3039 33.5067 28.6851 34.1126 28.698 34.8733C28.7109 35.621 29.3168 36.2398 30.0774 36.2269L33.7259 36.2011C34.912 36.1883 35.8789 35.2213 35.866 34.0224C35.866 33.5196 35.6855 33.0555 35.389 32.6816C35.9949 32.5914 36.6008 32.4624 37.181 32.2819L37.1939 33.945C37.1939 33.9837 37.1939 34.0224 37.2068 34.0482C36.9103 34.3705 36.7298 34.7959 36.7298 35.2729V35.4792C36.7427 36.459 37.542 37.2583 38.5347 37.2454L40.881 37.2196C40.7908 39.0245 39.4758 40.52 37.7482 40.8939C37.9545 40.3524 38.0705 39.7594 38.0577 39.1534ZM41.9769 35.4405C41.9769 35.9175 41.5901 36.3172 41.1131 36.3172L38.5347 36.343C38.0576 36.343 37.658 35.9562 37.658 35.4792V35.2729C37.658 34.7959 38.0448 34.3962 38.5218 34.3962L41.1002 34.3705C41.5772 34.3705 41.9769 34.7572 41.9769 35.2342V35.4405ZM42.9309 31.1474C42.6988 31.2764 42.441 31.2635 42.2992 31.2377C42.2347 30.9927 42.1187 30.7736 41.9898 30.5544C42.2347 30.4899 42.5957 30.4513 42.8664 30.6575C42.9696 30.7349 43.0985 30.8122 43.2145 30.8638C43.1243 30.9798 43.034 31.083 42.9309 31.1474Z" fill="#961914"/>
<path d="M38.1866 31.7534C38.1866 32.0112 38.3929 32.2046 38.6507 32.2046H38.6636C38.9214 32.2046 39.1148 31.9983 39.1148 31.7405C39.1148 31.4826 38.9085 31.2892 38.6507 31.2892H38.6378C38.38 31.2892 38.1866 31.4955 38.1866 31.7534Z" fill="#961914"/>
<path d="M40.5587 32.1788C40.8166 32.1788 41.0228 31.9726 41.0228 31.7147C41.0228 31.4569 40.8166 31.2635 40.5587 31.2635H40.5458C40.288 31.2635 40.0946 31.4698 40.0946 31.7276C40.0946 31.9854 40.3009 32.1917 40.5587 32.1788Z" fill="#961914"/>
<path d="M38.7409 34.9635C38.4831 34.9635 38.2768 35.1698 38.2768 35.4276C38.2768 35.6855 38.4831 35.8789 38.7409 35.8789H38.7538C39.0116 35.8789 39.205 35.6726 39.205 35.4147C39.205 35.1569 38.9988 34.9506 38.7409 34.9635Z" fill="#961914"/>
<path d="M40.6619 34.9377C40.404 34.9377 40.1978 35.144 40.1978 35.4019C40.1978 35.6597 40.404 35.8531 40.6619 35.8531H40.6748C40.9326 35.8531 41.126 35.6468 41.126 35.389C41.1131 35.144 40.9068 34.9377 40.6619 34.9377Z" fill="#961914"/>
<path d="M21.0529 40.8294C20.9369 40.8294 20.8209 40.881 20.7306 40.9712C20.6404 41.0615 20.6017 41.1775 20.6017 41.2935C20.6017 41.4096 20.6533 41.5256 20.7435 41.6158C20.8337 41.7061 20.9498 41.7448 21.0658 41.7448C21.1818 41.7448 21.2979 41.6932 21.3881 41.6029C21.4784 41.5127 21.517 41.3967 21.517 41.2806C21.517 41.1646 21.4655 41.0486 21.3752 40.9583C21.285 40.881 21.1689 40.8294 21.0529 40.8294Z" fill="#961914"/>
<path d="M22.1358 24.0696C22.7031 23.8634 23.786 23.6829 24.9721 23.8634C26.4418 24.0825 27.6666 24.7916 28.5174 25.9132C28.5948 26.0164 28.6206 26.1582 28.569 26.2742C28.5174 26.3902 28.4014 26.4805 28.2725 26.4934C28.2596 26.4934 27.2669 26.6223 26.1582 26.8801L26.4418 27.6279C26.5192 27.8213 26.416 28.0275 26.2226 28.1049C26.184 28.1178 26.1453 28.1307 26.1066 28.1307C25.9519 28.1307 25.7843 28.0404 25.7327 27.8857L25.4233 27.0864C25.2686 27.1251 25.1139 27.1767 24.9592 27.2282C24.9463 27.2282 24.9463 27.2282 24.9334 27.2282L25.2428 28.0017C25.3202 28.1951 25.2171 28.4014 25.0237 28.4788C24.985 28.4917 24.9463 28.5045 24.9076 28.5045C24.7529 28.5045 24.5982 28.4143 24.5338 28.2596L24.2244 27.4861C24.1341 27.5118 24.0439 27.5505 23.9536 27.5763C23.3993 27.7697 22.9867 27.9115 22.716 27.9502C22.7031 27.9502 22.6902 27.9502 22.6902 27.9502C22.4968 27.9631 22.3163 27.8084 22.2905 27.615C22.2648 27.4087 22.4066 27.2282 22.6128 27.2024C22.7933 27.1767 23.2317 27.0348 23.6829 26.8672C23.8763 26.8028 24.0825 26.7254 24.3017 26.6481C24.4306 26.6094 24.5596 26.5578 24.7014 26.5192C24.9592 26.4418 25.2428 26.3516 25.5394 26.2742C26.2742 26.0808 26.9962 25.9519 27.4861 25.8745C25.707 24.1083 23.077 24.5467 22.4066 24.7916C21.878 24.985 21.0142 25.4362 21.1302 26.3C21.156 26.5063 21.0142 26.6868 20.8079 26.7125C20.6017 26.7383 20.4083 26.5836 20.3825 26.3902C20.2536 25.3589 20.8853 24.5209 22.1358 24.0696Z" fill="#961914"/>
<path d="M18.9773 20.6919C18.655 21.6459 17.7139 24.6498 18.049 26.8544C18.049 26.8672 18.049 26.8801 18.049 26.8801C18.178 27.9502 18.887 28.93 20.0602 29.6262C20.8466 30.0903 21.7749 30.3997 22.7805 30.5415L22.8707 32.1272C22.8707 32.1272 22.9094 32.398 22.9223 32.5914C22.9352 32.7976 22.8449 32.8879 23.0512 32.8879L26.1066 32.759C26.3129 32.7461 26.4805 32.5785 26.4676 32.3722C26.4547 32.1659 26.2742 32.0112 26.068 32.0112L25.2429 32.037L25.1526 30.5157C26.0293 30.3868 26.8544 30.129 27.5634 29.7551C27.976 30.3352 28.569 30.7993 29.2394 31.0701C29.7293 31.2635 30.2579 31.3537 30.7865 31.3408C31.083 31.3279 31.3795 31.2892 31.6631 31.2119C32.2175 31.0572 32.6043 30.7607 32.7848 30.3868C32.9524 30.4126 33.1328 30.4255 33.3004 30.4255C34.306 30.3868 35.2085 29.7293 35.4792 28.7237C35.621 28.1565 35.5566 27.5634 35.2729 27.0477C35.0924 26.7254 34.8475 26.4418 34.5381 26.2355C35.1956 25.6038 35.4276 24.624 35.0538 23.7474C34.7057 22.9094 33.9064 22.3421 33.0297 22.2519C33.1328 21.8909 33.1457 21.4912 33.0426 21.1045C32.9008 20.4985 32.5269 19.9828 31.9983 19.6477C31.4569 19.2996 30.8252 19.1835 30.1934 19.3125C29.5746 19.4414 29.046 19.7895 28.6979 20.3052C28.3756 20.7951 27.8471 22.0327 27.499 23.193C26.416 22.6515 25.0882 22.3679 23.7216 22.4195C23.2059 22.4324 22.7031 22.4968 22.2132 22.6C22.3163 21.6459 22.5226 19.6734 22.6386 18.9128C22.8965 17.211 22.7031 16.0507 22.0456 15.3804C21.5686 14.8776 20.8466 14.6713 19.9313 14.7486C17.6365 14.942 17.3915 18.3455 17.3787 18.4874C17.3658 18.6292 17.4431 18.7581 17.572 18.8354C17.701 18.9128 17.8428 18.9128 17.9717 18.8354C18.2811 18.655 18.5389 18.5776 18.7452 18.6034C18.655 18.9644 18.5389 19.4801 18.5261 19.6219C18.5003 20.0344 18.6679 20.447 18.9773 20.6919ZM29.5102 28.0018C29.8196 27.4603 29.9614 26.893 29.9227 26.3C29.8582 25.2557 29.2523 24.2888 28.1952 23.5669C28.5432 22.355 29.0847 21.1045 29.3683 20.679C29.6004 20.3309 29.9614 20.086 30.3868 19.9957C30.8123 19.9055 31.2506 19.9957 31.6116 20.2278C32.3593 20.7048 32.5914 21.6717 32.1401 22.3937C32.0628 22.5226 32.0628 22.6773 32.153 22.7933C32.2433 22.9094 32.3851 22.9738 32.5398 22.948C33.3133 22.8191 34.074 23.2317 34.3705 23.9536C34.667 24.6885 34.3705 25.5394 33.6614 25.9003C33.5325 25.9648 33.4551 26.1066 33.468 26.2484C33.4809 26.3902 33.5841 26.5192 33.7259 26.5707C34.5252 26.8672 34.9635 27.6795 34.7572 28.4788C34.5381 29.3168 33.6485 29.8067 32.7848 29.5746C32.7461 29.5617 32.7074 29.5488 32.6687 29.5359C32.0112 29.3812 30.5931 28.7237 29.5102 28.0018ZM28.2209 29.3683C28.5561 29.1363 28.8398 28.8784 29.0847 28.6077C30.0645 29.2523 31.2764 29.8453 32.0628 30.1547C31.9339 30.3223 31.676 30.4384 31.4569 30.5028C30.8251 30.6704 30.1548 30.6318 29.5359 30.3997C29.0074 30.1805 28.5432 29.8195 28.2209 29.3683ZM23.6442 32.1015L23.554 30.606C23.7732 30.6189 24.0052 30.6189 24.2244 30.606C24.2888 30.606 24.3533 30.606 24.4178 30.5931L24.508 32.0628L23.6442 32.1015ZM18.7968 26.6739C18.7194 25.3073 19.97 24.0052 21.9167 23.4379C22.5097 23.2703 23.1285 23.1672 23.786 23.1414C25.1913 23.0899 26.5321 23.4122 27.5505 24.0439C28.5304 24.6498 29.1105 25.462 29.1621 26.3258C29.1878 26.8672 29.0331 27.3829 28.6722 27.8728C28.3885 28.2725 27.9889 28.6335 27.4861 28.93C26.5836 29.4844 25.4105 29.8067 24.1728 29.8453C23.8247 29.8582 23.4895 29.8453 23.1543 29.8195C22.1487 29.7293 21.2076 29.4328 20.447 28.9816C19.4672 28.4014 18.887 27.615 18.7968 26.7641C18.8097 26.7383 18.7968 26.7125 18.7968 26.6739ZM19.7121 20.924C20.2536 20.8982 20.7048 20.4599 20.7693 19.8668C20.7822 19.6734 20.7435 18.7581 20.7177 18.4745C20.7048 18.2682 20.5243 18.1135 20.3181 18.1135C20.1118 18.1264 19.9442 18.294 19.9571 18.5003C19.9829 19.0417 20.0087 19.6863 20.0087 19.7895C19.9829 20.0215 19.8024 20.2149 19.609 20.1891C19.5961 20.1891 19.5703 20.1891 19.5574 20.1762C19.3898 20.1247 19.2738 19.9184 19.2996 19.6992C19.3125 19.5961 19.4543 19.003 19.5703 18.4874C19.5703 18.4745 19.5703 18.4616 19.5703 18.4616V18.4487C19.5703 18.4358 19.5703 18.4358 19.5703 18.4229C19.5703 18.41 19.5703 18.41 19.5703 18.3971V18.3842C19.5703 18.3713 19.5703 18.3713 19.5703 18.3584V18.3455C19.5703 18.3327 19.5703 18.3327 19.5703 18.3198V18.3069C19.5703 18.294 19.5703 18.294 19.5703 18.294V18.2811C19.5703 18.2811 19.5703 18.2682 19.5574 18.2682C19.5574 18.2682 19.5574 18.2553 19.5445 18.2553C19.5445 18.2553 19.5445 18.2424 19.5316 18.2424C19.5316 18.2295 19.5187 18.2295 19.5187 18.2166C19.5187 18.2166 19.5187 18.2037 19.5059 18.2037L19.493 18.1908C19.493 18.1908 19.493 18.1779 19.4801 18.1779L19.4672 18.1651L19.4543 18.1522L19.4414 18.1393C19.4285 18.1264 19.4285 18.1264 19.4156 18.1135C19.2093 17.9588 18.8097 17.7654 18.2424 17.9072C18.41 17.0434 18.8612 15.5866 20.0215 15.4835C20.7048 15.419 21.1947 15.548 21.5041 15.8831C21.9811 16.373 22.1101 17.3529 21.8909 18.7968C21.762 19.6734 21.517 22.0585 21.4397 22.832C20.4599 23.1543 19.6219 23.6571 19.016 24.2888C18.9515 24.3533 18.8999 24.4177 18.8355 24.4822C19.0417 22.9609 19.5059 21.5041 19.7121 20.924Z" fill="#961914"/>
<path d="M20.1763 16.5406C20.6662 16.5277 20.7048 17.2626 20.2149 17.2755C19.7379 17.2884 19.6864 16.5535 20.1763 16.5406Z" fill="#961914"/>
<path d="M30.49 21.1818C30.9799 21.1689 31.0186 21.9038 30.5287 21.9167C30.0516 21.9424 30.0001 21.1947 30.49 21.1818Z" fill="#961914"/>
<path d="M33.0426 24.1341C33.5325 24.1212 33.5712 24.8561 33.0813 24.869C32.6043 24.8948 32.5656 24.147 33.0426 24.1341Z" fill="#961914"/>
<path d="M33.597 27.8986C34.0869 27.8857 34.1255 28.6206 33.6356 28.6335C33.1586 28.6463 33.1071 27.9115 33.597 27.8986Z" fill="#961914"/>
<path d="M21.3752 26.9446C21.8651 26.9317 21.9038 27.6666 21.4139 27.6795C20.924 27.6924 20.8853 26.9575 21.3752 26.9446Z" fill="#961914"/>
</g>
<defs>
<clipPath id="clip0_177_119">
<rect width="60" height="60" fill="white"/>
</clipPath>
</defs>
</svg>
