<svg width="297" height="353" viewBox="0 0 297 353" fill="none" xmlns="http://www.w3.org/2000/svg">
<path d="M62.2086 0.180901C40.7497 17.7506 24.2311 40.8942 13.6229 66.4309C2.8025 92.4523 -2.04698 121.351 0.802086 149.463C2.28724 164.064 6.07589 178.847 14.3806 191.115C22.746 203.475 35.2031 212.563 48.2663 219.5C61.5721 226.588 76.3024 231.859 91.3661 233.404C105.096 234.828 119.796 232.798 131.192 224.528C148.832 211.714 155.106 180.755 135.102 167.063C129.556 163.276 122.948 161.398 116.341 160.58C109.188 159.702 101.702 159.944 94.7001 161.731C81.2428 165.155 71.4226 174.939 65.6638 187.298C53.6008 213.108 57.056 244.794 68.1795 270.27C79.7576 296.806 100.701 318.132 125.797 332.279C149.802 345.85 177.323 353.12 204.935 352.969C231.607 352.817 258.491 345.638 280.678 330.613C286.042 326.978 291.134 322.858 295.832 318.405C296.529 317.739 295.468 316.648 294.771 317.345C275.798 335.369 251.156 346.214 225.363 349.97C199.358 353.756 172.534 350.424 148.044 341.064C122.251 331.219 98.61 314.649 82.3945 292.111C65.8154 269.119 57.0863 239.886 60.5719 211.563C62.1783 198.476 66.5428 184.996 75.484 175.03C85.3345 164.064 99.792 160.671 114.068 161.853C126.888 162.913 140.164 168.638 144.528 181.694C148.075 192.297 145.407 204.444 139.406 213.623C123.494 238.039 89.0929 234.252 65.482 225.528C51.3882 220.317 37.5369 212.775 26.4134 202.566C15.5324 192.569 8.62187 179.756 5.106 165.488C1.71136 151.796 1.07487 137.407 1.95384 123.381C2.8025 109.81 5.25754 96.36 9.22805 83.3645C17.0478 57.7369 30.6567 33.7451 49.2059 14.3579C53.6614 9.69279 58.3896 5.33065 63.3907 1.24114C64.0271 0.63529 62.9663 -0.424952 62.2086 0.180901Z" fill="white"/>
</svg>
